<?xml version="1.0" standalone="no"?>
<!DOCTYPE svg PUBLIC "-//W3C//DTD SVG 20010904//EN"
 "http://www.w3.org/TR/2001/REC-SVG-20010904/DTD/svg10.dtd">
<svg version="1.0" xmlns="http://www.w3.org/2000/svg"
 width="551.000000pt" height="551.000000pt" viewBox="0 0 551.000000 551.000000"
 preserveAspectRatio="xMidYMid meet">
<metadata>
Created by potrace 1.14, written by Peter Selinger 2001-2017
</metadata>
<g transform="translate(0.000000,551.000000) scale(0.100000,-0.100000)"
fill="#000000" stroke="none">
<path d="M1562 4798 c-7 -7 -17 -14 -22 -14 -21 -3 -22 -4 -11 -17 14 -18 -7
-47 -36 -50 -12 0 -19 -5 -17 -9 3 -5 10 -6 15 -3 15 10 10 -12 -7 -29 -12
-12 -12 -16 -2 -17 7 0 4 -4 -6 -8 -21 -8 -30 -39 -17 -56 4 -5 11 -19 14 -30
l7 -20 -16 20 -16 20 4 -20 c2 -11 10 -26 18 -33 8 -8 9 -11 3 -7 -7 3 -13 1
-13 -5 0 -6 -5 -8 -12 -4 -7 4 -8 3 -4 -4 4 -7 17 -12 29 -13 20 -1 20 -2 -3
-9 -14 -4 -18 -8 -11 -9 11 -1 12 -4 4 -12 -12 -12 -6 -42 6 -34 4 2 8 -2 8
-9 0 -9 -7 -12 -16 -8 -13 5 -13 1 3 -23 10 -17 16 -27 12 -23 -4 3 -16 -2
-27 -13 -22 -22 -39 -25 -39 -7 0 6 -7 3 -15 -8 -13 -18 -14 -18 -8 6 6 24 6
24 -12 7 -14 -15 -20 -16 -26 -5 -7 11 -9 11 -9 0 0 -7 -4 -11 -8 -8 -4 2 -14
1 -22 -4 -9 -5 -19 -5 -27 2 -9 7 -13 7 -13 -1 0 -6 -5 -11 -11 -11 -5 0 -7 5
-4 11 4 5 -1 19 -11 30 -17 19 -17 20 0 13 16 -6 17 -4 8 13 -6 11 -8 24 -4
28 4 5 1 5 -5 1 -7 -4 -13 -3 -13 3 0 5 6 12 13 14 9 4 9 6 -1 6 -10 1 -10 6
-2 21 8 15 8 20 -2 21 -7 0 -4 4 7 9 l20 9 -20 0 c-11 1 -16 5 -10 9 6 4 11
15 11 25 2 14 -1 15 -13 6 -8 -7 -13 -8 -12 -3 3 19 -1 34 -12 34 -5 0 -7 -4
-4 -10 3 -5 2 -10 -4 -10 -5 0 -11 5 -13 10 -2 6 -13 12 -26 15 -12 2 -20 0
-17 -4 3 -5 -2 -12 -11 -15 -23 -9 -31 -7 -14 4 13 8 13 11 1 22 -10 10 -12
10 -7 1 5 -9 0 -13 -14 -13 -12 0 -18 -4 -15 -10 3 -5 1 -10 -4 -10 -6 0 -11
5 -11 11 0 6 -15 0 -32 -12 l-33 -23 25 29 c14 16 18 24 9 17 -9 -6 -20 -8
-24 -4 -5 4 -5 2 -1 -5 3 -6 2 -14 -3 -17 -5 -3 -7 -16 -3 -28 3 -13 1 -19 -5
-15 -5 3 -10 0 -10 -8 0 -8 4 -12 9 -9 7 5 12 -10 9 -29 -1 -4 -2 -20 -3 -35
-1 -15 -6 -30 -11 -33 -5 -3 -1 -9 8 -12 10 -5 14 -3 9 5 -4 7 -3 8 5 4 9 -6
9 -11 0 -22 -9 -11 -9 -14 0 -14 7 0 9 -5 5 -12 -5 -9 -2 -9 9 1 15 12 21 9
19 -10 0 -3 14 -4 31 -2 42 5 47 5 80 0 15 -2 27 0 27 6 0 6 8 3 18 -5 9 -9
22 -13 29 -11 6 2 15 -1 19 -8 4 -7 3 -9 -3 -6 -18 12 -23 -22 -5 -33 15 -10
15 -11 -2 -5 -19 5 -19 5 -3 -12 12 -14 13 -22 6 -33 -9 -13 -10 -12 -6 2 3 9
0 18 -6 21 -7 3 -12 -5 -12 -18 0 -13 3 -21 6 -19 4 2 12 -3 19 -11 11 -13 10
-14 -6 -8 -16 6 -17 5 -6 -9 9 -11 10 -18 2 -23 -16 -10 -12 -28 6 -21 14 5
15 4 4 -9 -10 -12 -16 -13 -26 -4 -8 6 -14 7 -14 2 0 -12 -38 -14 -45 -3 -8
13 -35 0 -35 -16 0 -8 -5 -14 -11 -14 -6 0 -8 9 -3 23 6 21 6 21 -15 -3 -13
-15 -19 -18 -15 -8 5 15 2 16 -23 9 -15 -4 -33 -6 -40 -4 -6 2 -15 -1 -19 -8
-4 -8 -3 -9 4 -5 8 5 11 0 8 -16 -2 -13 -10 -22 -17 -20 -10 3 -10 0 1 -12 15
-19 24 -21 14 -4 -4 7 -3 8 4 4 6 -4 9 -13 6 -21 -5 -11 -11 -12 -27 -4 -20 9
-20 9 -5 -4 10 -8 15 -17 11 -21 -4 -4 0 -4 10 0 15 5 16 3 7 -20 -5 -14 -6
-26 -2 -26 4 -1 -4 -10 -17 -20 -13 -11 -18 -20 -12 -20 6 0 11 -4 11 -10 0
-14 -22 -8 -38 10 -8 8 -11 9 -7 3 4 -8 0 -13 -10 -13 -9 0 -14 4 -10 9 10 18
-13 21 -26 4 -12 -14 -12 -16 0 -8 10 5 12 4 7 -4 -11 -17 -39 7 -31 28 3 11
0 9 -10 -4 -9 -11 -13 -26 -10 -34 4 -11 3 -12 -10 -1 -8 7 -12 17 -8 24 4 6
-2 4 -13 -4 -29 -22 -30 -24 -13 -18 9 4 16 1 16 -7 0 -10 -7 -11 -26 -3 -14
5 -22 6 -18 2 4 -4 1 -14 -6 -23 -11 -14 -10 -14 6 -2 11 9 17 10 17 2 0 -6
-9 -16 -20 -23 -24 -15 -26 -25 -5 -25 8 0 11 5 8 10 -3 6 -1 7 5 3 9 -5 7
-14 -4 -32 -15 -22 -15 -24 2 -25 12 0 14 -3 6 -6 -10 -4 -9 -8 5 -19 17 -12
16 -13 -7 -9 -24 4 -25 4 -5 -12 20 -15 20 -15 -3 -10 -19 4 -21 3 -11 -9 6
-7 16 -11 22 -7 6 3 7 1 3 -5 -4 -8 -15 -8 -31 -2 -15 6 -25 6 -25 0 0 -4 8
-11 18 -13 9 -3 5 -4 -11 -4 -17 1 -26 6 -23 14 3 7 0 15 -6 19 -6 4 -8 3 -4
-4 3 -6 2 -13 -4 -17 -5 -3 -10 1 -10 10 0 9 -5 13 -10 10 -6 -4 -7 -11 -4
-17 4 -6 -1 -6 -14 1 -17 9 -23 8 -32 -6 -9 -16 -10 -15 -5 5 4 13 2 22 -4 22
-6 0 -11 -7 -11 -15 0 -9 -6 -12 -17 -8 -12 5 -14 3 -8 -7 6 -10 4 -11 -6 -4
-8 4 -21 9 -29 11 -11 1 -10 -2 3 -12 18 -13 18 -14 -2 -27 -12 -7 -21 -16
-21 -21 0 -4 5 -5 11 -1 7 4 10 1 7 -7 -3 -8 -10 -14 -15 -14 -6 0 -15 -3 -19
-7 -3 -4 3 -6 15 -3 11 2 21 0 21 -6 0 -5 -6 -9 -12 -9 -9 0 -9 -3 1 -9 8 -5
11 -16 8 -24 -7 -20 16 -29 34 -14 7 7 7 3 -2 -8 -19 -24 -14 -51 9 -57 27 -8
37 -4 34 12 -1 8 4 4 12 -10 9 -14 15 -19 16 -11 0 8 6 11 16 7 8 -3 12 -2 9
3 -3 5 -1 12 5 16 5 3 10 0 10 -7 0 -8 9 -14 19 -14 11 0 17 5 13 11 -3 5 2 4
11 -4 15 -12 17 -11 18 3 1 9 2 21 3 27 0 7 10 15 21 20 11 4 15 8 9 8 -7 1
-15 8 -18 17 -4 11 -2 15 8 11 10 -4 13 -1 9 9 -3 8 1 22 8 32 12 15 12 16 -2
4 -14 -10 -18 -10 -23 3 -4 11 -2 14 6 9 7 -5 8 -3 3 6 -4 7 -2 15 4 19 6 4
13 18 16 31 2 12 7 25 11 29 4 3 5 -1 1 -11 -4 -10 1 -18 14 -21 10 -3 17 -1
14 3 -3 5 -1 11 5 15 5 3 10 -2 11 -12 0 -11 2 -13 6 -5 4 10 9 10 23 -3 12
-11 20 -13 25 -6 9 15 62 14 68 -1 4 -10 8 -10 15 0 7 11 10 10 16 -3 3 -9 3
-22 -1 -28 -5 -7 -8 -23 -9 -37 0 -14 -6 -36 -13 -50 -12 -24 -12 -24 5 -5 16
20 16 20 11 -2 -3 -13 0 -23 5 -23 6 0 5 -6 -2 -15 -10 -12 -9 -16 4 -21 9 -3
13 -11 9 -18 -4 -6 0 -6 9 2 11 9 18 10 23 2 8 -13 25 -13 25 0 0 5 -5 9 -11
7 -6 -1 -14 5 -16 13 -4 13 -3 13 6 0 6 -8 11 -11 11 -6 0 5 9 1 19 -8 13 -12
21 -14 26 -6 3 5 11 8 16 4 6 -3 9 0 7 7 -1 8 2 14 7 14 6 0 9 -4 7 -8 -1 -5
3 -5 10 0 7 4 21 8 31 8 10 0 22 7 27 15 5 8 10 10 10 4 0 -17 -23 -32 -43
-28 -11 1 -16 -1 -12 -4 4 -4 10 -7 13 -7 4 0 13 -4 21 -9 10 -6 12 -5 7 2 -4
7 -1 12 8 12 22 0 21 46 -1 60 -14 9 -14 10 -2 7 9 -3 16 1 16 9 0 7 -5 10
-10 7 -7 -4 -7 1 -3 13 11 25 16 110 6 94 -5 -8 -9 -5 -12 8 -4 15 -2 19 8 15
8 -3 14 0 14 5 0 6 -9 9 -21 7 -42 -8 -106 -8 -119 0 -9 5 -11 4 -6 -3 4 -7 4
-12 -1 -13 -4 0 -16 -2 -26 -4 -9 -2 -15 1 -11 6 3 5 9 7 13 5 4 -3 8 1 8 9 0
11 -4 11 -23 -1 -17 -12 -24 -12 -30 -3 -4 7 -3 9 2 6 6 -3 15 3 22 14 10 15
10 19 0 17 -7 -2 -12 3 -11 10 2 6 -2 12 -7 12 -14 0 -13 -13 2 -28 8 -8 8
-12 1 -12 -20 0 -25 34 -7 47 10 7 12 13 6 13 -7 0 -12 5 -12 11 0 5 6 7 13 3
9 -5 9 -4 0 6 -9 9 -9 19 -2 33 6 11 7 17 2 14 -5 -3 -15 3 -22 15 -7 11 -8
17 -2 13 15 -9 14 2 -5 30 -14 22 -14 24 5 34 25 14 42 14 19 0 -21 -12 -24
-39 -4 -39 8 0 17 -6 19 -12 4 -10 6 -9 6 1 1 11 4 11 19 0 15 -13 16 -12 3 3
-7 10 -17 15 -22 12 -5 -3 -9 0 -9 6 0 6 -5 8 -12 4 -7 -4 -8 -3 -4 4 5 9 14
8 35 -2 25 -13 30 -13 46 2 18 16 18 16 5 -1 -12 -16 -11 -18 11 -15 13 2 30
7 38 12 9 6 12 5 8 -1 -10 -17 24 -25 41 -11 12 10 14 10 8 1 -4 -7 -3 -13 3
-13 19 0 21 19 4 30 -17 11 -17 11 0 6 14 -4 17 0 15 24 -1 17 -7 30 -13 30
-5 0 -3 5 5 10 13 9 13 10 0 11 -8 1 -19 1 -24 0 -5 -1 -4 5 4 13 7 9 18 16
24 16 6 0 4 -5 -4 -10 -8 -5 -10 -10 -4 -10 18 0 24 12 13 26 -6 8 -16 11 -22
7 -6 -3 -7 -1 -3 6 4 6 11 9 15 7 4 -3 8 4 8 15 2 18 0 19 -14 7 -13 -10 -15
-10 -9 0 4 7 2 19 -4 27 -9 11 -9 15 -1 15 6 0 11 -4 11 -10 0 -5 5 -10 11
-10 5 0 8 4 4 9 -3 6 13 9 40 7 37 -2 45 0 40 13 -4 11 0 9 16 -5 12 -10 19
-13 14 -5 -6 10 -2 12 14 6 12 -4 27 -2 34 3 17 14 51 -12 44 -32 -7 -17 13
-18 25 -2 3 5 5 -2 5 -17 -1 -14 -5 -23 -8 -21 -4 2 -10 -3 -13 -12 -3 -8 -2
-13 3 -10 5 3 12 -1 15 -10 3 -8 2 -12 -3 -9 -5 3 -12 1 -16 -5 -3 -5 2 -10
12 -10 17 -1 17 -1 1 -11 -9 -5 -15 -16 -12 -24 4 -8 9 -13 13 -10 4 2 8 -2 8
-10 0 -11 -5 -12 -21 -3 -20 10 -20 10 -6 -7 14 -17 13 -18 -7 -13 -15 4 -20
2 -16 -7 6 -16 -13 -14 -47 5 -24 13 -24 12 -10 -5 14 -17 14 -17 -7 -7 -27
15 -36 15 -27 1 4 -7 -1 -7 -16 1 -15 8 -20 8 -16 1 11 -17 -5 -13 -18 4 -8
11 -15 12 -26 4 -13 -10 -13 -10 1 -6 9 3 16 -1 16 -8 0 -7 -7 -12 -16 -11
-12 1 -16 -9 -15 -41 0 -23 -3 -40 -8 -37 -15 10 -8 -9 9 -21 13 -9 13 -14 3
-20 -9 -6 -11 -4 -5 6 5 8 4 11 0 6 -11 -10 -14 -67 -3 -68 4 -1 16 -2 26 -3
11 0 26 -7 35 -15 15 -12 17 -11 17 3 0 16 1 16 16 2 18 -18 28 -21 18 -5 -4
8 1 9 15 4 13 -4 29 -1 38 7 15 11 16 11 10 -4 -3 -10 -1 -20 5 -24 7 -4 8 -3
4 4 -4 7 -4 12 -1 12 10 0 38 -30 28 -30 -4 0 0 -5 10 -11 17 -10 17 -12 2
-29 -12 -14 -13 -20 -4 -26 8 -5 10 -3 4 6 -5 8 -4 11 1 7 11 -6 11 -47 1 -64
-4 -7 1 -17 10 -23 13 -9 14 -10 2 -7 -29 9 -17 -24 15 -40 28 -15 30 -15 18
0 -11 13 -10 15 7 10 12 -3 19 -8 16 -12 -6 -10 33 -7 42 4 5 4 2 5 -6 0 -10
-6 -12 -4 -7 4 6 9 12 8 26 -4 17 -15 19 -15 29 2 10 17 10 17 11 -2 0 -17 2
-17 10 -5 7 11 10 11 10 2 0 -7 3 -11 8 -9 4 2 18 -7 32 -20 15 -15 19 -23 10
-21 -9 2 -14 -3 -11 -12 2 -8 3 -46 4 -85 0 -66 -1 -69 -26 -76 -21 -6 -24 -4
-19 10 5 14 4 14 -12 2 -14 -12 -19 -12 -26 -2 -6 11 -8 11 -12 0 -4 -12 -7
-12 -22 0 -15 12 -16 12 -9 -5 6 -16 4 -17 -9 -6 -13 10 -17 10 -22 -4 -5 -13
-9 -14 -21 -4 -8 7 -12 17 -8 23 3 5 2 8 -3 4 -5 -3 -20 1 -34 9 -14 7 -19 13
-12 14 14 0 12 56 -3 81 -5 8 2 5 16 -6 13 -11 19 -13 12 -5 -16 21 -21 65 -7
63 9 -2 9 4 0 22 -6 14 -15 25 -19 25 -5 0 -5 -6 0 -12 4 -7 -5 -5 -20 5 -15
9 -27 14 -27 9 0 -4 -27 -8 -60 -7 -33 0 -60 3 -60 8 0 4 -5 7 -11 7 -5 0 -8
-4 -5 -9 3 -5 -2 -8 -11 -7 -10 0 -18 -3 -18 -9 0 -5 -4 -15 -8 -22 -5 -8 -1
-11 15 -8 23 4 23 4 -2 -16 -14 -11 -19 -18 -12 -14 16 8 16 -7 0 -24 -10 -11
-10 -13 0 -7 7 5 12 1 12 -9 0 -9 -4 -14 -8 -11 -5 3 -9 -1 -9 -9 0 -8 4 -12
9 -9 13 8 10 -10 -4 -25 -10 -11 -10 -13 0 -7 6 4 12 3 12 -3 0 -5 -6 -12 -12
-14 -7 -3 -3 -6 10 -6 14 -1 20 -5 17 -12 -4 -6 -10 -8 -13 -5 -3 3 -14 -2
-25 -11 -16 -14 -19 -15 -15 -3 4 10 -2 15 -18 16 -13 1 -24 -2 -24 -8 0 -5 4
-7 9 -3 5 3 12 1 15 -4 7 -11 -13 -9 -32 2 -7 5 -9 13 -6 19 4 7 2 8 -5 4 -6
-4 -8 -12 -5 -18 5 -8 1 -9 -10 -5 -10 4 -20 7 -22 7 -3 0 -2 5 2 12 4 7 3 8
-5 4 -6 -4 -9 -11 -6 -16 7 -11 -31 -24 -44 -15 -6 3 -8 13 -5 23 5 15 4 15
-6 -1 -6 -9 -16 -14 -22 -11 -7 4 -8 2 -4 -5 4 -6 13 -9 19 -5 7 3 3 -2 -7
-10 -20 -16 -31 -46 -17 -46 4 0 13 6 21 13 8 6 6 2 -4 -10 -11 -13 -15 -23
-10 -23 5 -1 -2 -8 -16 -16 -14 -8 -17 -13 -7 -10 9 3 17 2 18 -2 0 -4 2 -15
4 -25 2 -9 -1 -15 -6 -11 -5 3 -9 0 -9 -5 0 -6 6 -11 13 -11 7 0 3 -8 -8 -17
-16 -13 -17 -15 -2 -10 11 4 17 1 17 -8 0 -9 10 -15 26 -15 14 0 23 4 19 9 -3
5 0 13 7 17 7 4 10 4 6 -1 -4 -4 -3 -14 4 -22 9 -11 14 -11 28 2 14 12 20 13
26 4 5 -8 3 -10 -6 -4 -9 5 -11 4 -6 -4 11 -16 28 -2 22 18 -4 9 3 5 15 -9 11
-14 18 -19 14 -12 -3 6 -1 12 5 12 6 0 8 5 4 12 -4 7 -3 8 5 4 6 -4 9 -12 5
-17 -3 -5 7 -8 23 -7 16 1 35 -2 43 -7 10 -6 9 -2 -3 12 -9 11 -17 25 -17 31
0 6 -9 9 -21 7 -17 -4 -19 -2 -9 10 14 17 24 20 15 5 -10 -16 1 -12 15 6 11
12 11 15 -1 12 -9 -2 -14 7 -15 29 -2 20 2 31 9 29 7 -2 9 -1 4 1 -4 3 -5 9
-1 14 6 11 -8 12 -22 2 -5 -5 -1 0 9 10 14 12 15 17 6 17 -11 0 -11 2 1 10 12
8 12 10 1 10 -8 0 -11 3 -7 7 8 8 14 10 47 12 13 1 18 5 13 14 -6 9 -5 9 7 0
16 -13 59 -14 59 0 0 4 10 -1 22 -12 13 -13 26 -17 32 -12 6 5 19 7 28 6 10
-2 20 1 24 6 8 14 21 11 28 -7 6 -15 4 -15 -10 -3 -15 12 -17 12 -12 -1 3 -8
-2 -21 -11 -28 -9 -8 -10 -11 -3 -7 6 3 13 0 14 -7 0 -7 2 -20 2 -28 1 -8 -4
-25 -12 -37 -8 -14 -10 -23 -4 -23 6 0 12 6 15 13 2 6 4 0 3 -15 -1 -16 -5
-23 -11 -18 -6 5 -11 -2 -12 -17 0 -16 2 -21 7 -14 5 9 9 6 13 -8 3 -13 13
-21 27 -21 14 0 19 -4 15 -12 -4 -7 0 -5 8 5 15 18 16 18 26 0 6 -10 11 -12
11 -5 0 6 7 12 16 12 9 0 12 -5 8 -12 -6 -10 -4 -10 7 0 17 16 32 16 24 0 -4
-7 -1 -6 7 2 7 9 24 15 38 14 14 -1 32 2 40 7 10 5 11 8 3 9 -7 0 -13 5 -13
11 0 5 4 8 8 5 5 -3 9 1 9 9 0 8 -4 12 -9 9 -4 -3 -6 5 -4 18 3 13 5 27 5 31
1 5 6 5 13 1 7 -4 8 -3 4 5 -6 8 -11 9 -21 1 -9 -8 -11 -5 -7 15 2 14 9 25 15
25 6 0 2 7 -9 16 -19 15 -19 16 0 9 19 -6 19 -5 3 13 -16 18 -16 20 -1 33 27
22 46 20 39 -4 -5 -16 -4 -18 3 -8 5 7 16 11 23 9 8 -3 20 2 27 11 12 14 13
14 8 -1 -3 -10 -1 -18 4 -18 6 0 10 4 10 8 0 4 15 7 34 7 19 0 34 -2 34 -5 -1
-18 4 -21 16 -11 11 9 14 6 14 -16 0 -15 5 -29 11 -31 9 -3 8 -8 -1 -20 -10
-12 -10 -16 0 -19 9 -4 7 -9 -6 -21 -10 -10 -13 -14 -7 -10 20 13 26 -4 7 -19
-9 -8 -12 -12 -6 -9 7 3 14 -1 17 -9 4 -9 1 -12 -9 -8 -10 3 -12 0 -8 -10 7
-20 -30 -40 -62 -34 -13 2 -24 1 -24 -4 0 -4 -14 -4 -30 1 -19 5 -28 5 -25 -1
9 -13 -9 -11 -23 3 -9 9 -12 9 -12 0 0 -6 -7 -9 -15 -6 -27 11 -37 -6 -20 -33
10 -14 13 -23 7 -19 -5 3 -9 -5 -9 -19 0 -16 4 -22 11 -18 6 4 5 0 -2 -9 -9
-11 -11 -33 -8 -65 4 -29 2 -43 -3 -34 -10 16 -35 5 -28 -13 3 -7 -5 -11 -22
-10 -14 1 -27 3 -28 4 -2 2 -7 3 -12 4 -5 0 -12 4 -16 7 -3 4 -19 0 -35 -8
-32 -15 -55 -9 -46 12 3 9 -2 11 -15 8 -16 -5 -17 -8 -7 -21 11 -13 11 -14 -1
-7 -11 6 -13 4 -8 -8 3 -9 1 -19 -5 -23 -7 -4 -8 -3 -4 4 4 7 3 12 -3 12 -5 0
-9 -9 -8 -20 1 -14 6 -19 16 -15 10 4 9 -1 -5 -16 -10 -12 -14 -19 -8 -16 13
8 27 -20 18 -34 -3 -6 0 -18 8 -27 12 -16 11 -16 -6 -2 -18 14 -19 13 -13 -2
4 -11 2 -18 -6 -18 -8 0 -6 -4 3 -10 13 -8 12 -11 -5 -25 -20 -16 -20 -16 2
-5 17 8 24 7 31 -6 8 -15 10 -15 15 1 4 9 11 13 17 10 6 -4 7 1 3 12 -6 15 -5
16 9 3 9 -8 14 -19 11 -25 -3 -5 4 0 14 13 16 20 21 21 31 9 7 -7 10 -16 7
-19 -3 -2 2 -5 10 -5 11 0 12 4 3 14 -6 7 -8 16 -4 20 3 3 6 1 6 -5 0 -7 11
-12 24 -12 16 0 27 -7 31 -20 4 -11 11 -18 16 -15 5 4 9 -3 9 -15 0 -13 -4
-19 -12 -14 -7 4 -8 3 -4 -5 6 -9 11 -9 24 1 14 12 14 10 3 -10 -7 -13 -10
-26 -7 -29 3 -3 -2 -12 -12 -20 -16 -14 -16 -14 3 -9 20 6 20 6 1 -9 -11 -8
-14 -15 -8 -15 7 0 12 -5 12 -11 0 -6 -7 -9 -14 -6 -10 4 -13 1 -9 -9 3 -7 10
-14 16 -14 6 0 3 -6 -8 -13 -10 -8 -15 -19 -11 -25 3 -6 2 -13 -4 -17 -5 -3
-10 -11 -10 -16 0 -6 4 -7 10 -4 6 3 7 -1 4 -9 -3 -9 -10 -14 -15 -11 -4 3 -6
-5 -4 -17 3 -13 10 -25 15 -26 6 -2 3 -10 -7 -17 -17 -13 -17 -14 0 -20 15 -6
15 -10 5 -23 -11 -13 -11 -14 1 -7 11 6 13 3 9 -13 -4 -12 -3 -20 2 -17 4 3
10 -2 13 -9 3 -8 1 -17 -6 -20 -9 -3 -8 -8 3 -15 11 -8 12 -11 2 -11 -7 0 -10
-5 -7 -10 4 -6 10 -8 14 -6 4 3 6 -13 5 -35 -1 -25 2 -37 9 -32 6 4 8 0 4 -10
-3 -9 -2 -19 3 -22 15 -9 12 -27 -2 -20 -7 4 -5 0 5 -8 20 -16 23 -32 5 -21
-7 4 -5 -1 4 -12 13 -14 14 -23 6 -38 -8 -14 -7 -17 1 -12 6 4 11 4 12 -1 0
-4 2 -22 3 -40 1 -17 9 -40 17 -49 8 -10 9 -15 3 -11 -6 3 -11 0 -11 -8 0 -8
4 -12 8 -10 4 3 9 -2 13 -10 3 -8 1 -15 -5 -15 -6 0 -7 -5 -4 -10 4 -6 11 -7
17 -4 7 5 8 2 3 -7 -12 -18 -14 -49 -3 -43 4 3 8 -9 8 -26 0 -22 4 -29 13 -24
7 5 6 0 -3 -11 -12 -15 -12 -17 -1 -10 11 6 13 4 8 -8 -3 -9 1 -18 10 -21 14
-6 14 -9 -3 -27 -14 -15 -14 -18 -2 -14 11 5 15 -2 16 -26 0 -17 6 -37 11 -42
6 -6 11 -28 11 -49 0 -21 4 -38 9 -38 5 0 12 -7 15 -16 3 -8 2 -12 -4 -9 -15
9 -12 -8 6 -33 9 -13 14 -32 11 -42 -3 -11 0 -18 6 -17 6 1 11 -2 12 -8 0 -5
4 -16 8 -22 5 -9 2 -13 -9 -13 -13 0 -12 -4 7 -21 13 -11 17 -17 9 -13 -12 6
-13 4 -2 -7 6 -7 12 -21 12 -31 0 -10 4 -18 9 -18 4 0 7 -13 5 -30 -2 -16 2
-32 8 -36 7 -5 8 -3 3 6 -5 9 -4 11 4 6 9 -6 9 -11 0 -22 -8 -10 -8 -14 0 -14
6 0 11 -5 11 -11 0 -5 -6 -7 -12 -3 -10 6 -10 5 -1 -8 7 -8 9 -19 5 -23 -4 -5
-2 -5 4 -2 7 4 15 0 18 -9 3 -8 2 -13 -2 -10 -5 3 -9 -1 -9 -9 0 -8 5 -13 11
-12 6 1 10 -6 8 -16 -2 -9 1 -17 6 -17 6 0 13 -7 16 -16 3 -8 2 -13 -3 -10 -5
4 -7 -3 -4 -14 3 -11 9 -17 14 -14 5 3 6 -1 3 -9 -3 -8 2 -20 11 -27 8 -7 15
-20 16 -29 0 -12 2 -11 9 4 8 19 9 19 9 -1 1 -12 8 -25 17 -28 8 -3 12 -2 9 3
-3 5 -1 12 5 16 6 3 10 -4 11 -17 0 -21 1 -21 8 -3 8 19 8 19 19 0 10 -18 11
-19 12 -2 0 10 4 16 8 13 4 -2 14 0 22 6 12 8 12 9 -3 4 -14 -5 -16 -1 -10 22
6 25 5 26 -13 12 -19 -14 -19 -14 0 8 12 13 14 22 7 22 -7 0 -9 5 -6 10 3 6 2
10 -3 10 -4 0 -7 18 -5 40 2 22 -2 40 -7 40 -6 0 -10 5 -10 11 0 5 3 8 8 6 4
-3 8 6 8 20 2 18 -2 23 -13 18 -13 -4 -14 -3 -3 10 7 8 8 15 3 15 -5 0 -9 16
-8 35 1 20 -2 38 -6 41 -5 3 -9 10 -9 15 0 6 6 7 13 3 8 -5 7 -2 -2 9 -8 10
-11 20 -8 24 4 3 2 12 -4 20 -9 10 -8 17 2 30 12 14 12 16 0 8 -11 -6 -13 -3
-9 13 4 12 2 22 -3 22 -5 0 -9 -5 -9 -12 0 -6 -3 -8 -6 -5 -4 4 -2 12 3 19 15
19 22 58 11 55 -6 -1 -13 4 -16 12 -3 9 0 11 9 6 8 -5 5 2 -5 14 -15 16 -16
20 -5 16 12 -4 15 0 13 17 -1 13 -3 27 -3 31 -1 5 -5 6 -10 3 -11 -7 -8 21 4
31 4 4 5 3 2 -3 -3 -6 0 -11 8 -11 15 0 12 32 -6 53 -9 11 -8 14 5 14 10 0 14
5 11 10 -4 6 -10 8 -15 5 -5 -3 -11 -1 -14 4 -4 5 -1 13 5 17 8 5 9 3 4 -6 -6
-9 -4 -11 5 -5 10 6 9 11 -5 22 -18 12 -18 13 4 13 12 0 19 4 16 10 -4 6 -11
8 -16 5 -5 -4 -5 3 0 18 6 14 8 27 5 30 -9 8 -13 48 -5 42 5 -3 12 2 15 11 3
8 2 13 -3 10 -5 -3 -11 1 -15 9 -3 8 -2 14 2 14 21 -3 24 3 6 17 -10 8 -14 13
-8 10 7 -3 15 1 18 10 3 8 2 13 -3 10 -5 -3 -11 3 -14 14 -3 12 -1 17 5 14 6
-4 8 6 5 25 -3 17 -2 29 3 26 4 -3 10 6 12 20 5 22 3 23 -10 13 -13 -11 -15
-10 -9 5 4 10 7 21 7 23 0 3 6 2 13 -2 9 -6 9 -4 -1 8 -10 13 -10 17 4 22 13
5 14 9 5 20 -8 10 -9 16 -1 21 15 9 13 38 -2 29 -7 -4 -2 5 12 21 14 16 20 25
13 21 -6 -3 -14 -2 -18 4 -3 5 -1 10 5 10 6 0 8 5 5 10 -4 6 -1 17 5 25 10 12
10 15 -1 15 -10 1 -9 4 3 14 13 10 15 15 6 24 -9 9 -9 12 1 12 7 0 9 5 6 10
-3 6 -1 10 4 10 6 0 11 5 11 11 0 5 -6 7 -12 3 -7 -4 -5 2 5 13 9 11 14 23 10
26 -3 4 0 7 8 7 11 0 11 2 -1 10 -10 6 -11 10 -2 10 6 0 12 8 12 18 0 10 5 23
12 30 9 9 9 12 -2 12 -11 1 -10 3 3 11 9 6 15 14 12 20 -4 5 -2 9 4 9 5 0 8 9
6 20 -2 11 0 18 4 15 11 -6 23 23 15 36 -3 5 0 9 5 9 6 0 10 6 9 13 -2 6 2 11
8 10 6 -1 11 4 11 12 0 8 -5 12 -11 9 -6 -3 3 7 19 22 17 15 22 25 13 21 -24
-9 -23 -2 4 23 12 11 18 20 13 20 -5 0 0 7 11 16 10 8 12 12 4 8 -12 -6 -11
-3 2 12 9 10 18 26 20 34 2 8 11 21 21 28 9 7 15 17 12 22 -3 5 5 16 17 24 12
9 19 16 14 16 -5 0 -3 7 4 15 7 8 9 15 5 15 -5 0 3 9 16 21 13 11 24 24 24 27
0 7 22 35 67 84 16 17 25 35 21 41 -4 6 0 8 8 5 10 -4 20 5 29 26 8 17 14 34
13 37 -1 4 8 4 20 1 12 -3 19 -1 15 3 -8 9 37 55 53 55 5 0 9 5 9 11 0 5 -5 7
-12 3 -7 -5 -8 -3 -4 5 5 7 10 10 13 7 8 -8 35 23 29 33 -4 5 2 8 11 7 19 -3
43 15 36 27 -2 4 1 7 7 7 6 0 8 5 4 12 -5 7 -3 8 6 3 7 -5 20 2 34 17 11 13
17 17 11 8 -6 -10 -2 -9 12 4 13 10 25 27 28 37 4 11 11 17 16 14 5 -4 12 1
15 9 3 9 10 14 14 11 5 -3 12 4 15 16 6 17 9 18 16 8 6 -11 9 -10 15 4 3 9 11
14 17 10 7 -4 8 0 3 13 -4 10 -4 15 0 11 4 -4 14 -1 22 6 13 9 14 9 8 0 -5 -9
-2 -11 9 -7 13 5 13 9 3 22 -11 13 -11 14 0 8 9 -5 19 -1 28 13 8 12 22 21 30
21 8 0 14 8 14 18 0 13 2 14 9 3 11 -17 25 4 15 22 -6 9 -5 9 8 -1 13 -10 18
-9 29 5 12 14 12 16 0 8 -9 -5 -12 -4 -7 3 4 6 13 9 21 5 8 -3 15 0 15 7 0 6
4 9 9 6 5 -3 12 1 15 10 3 8 10 12 16 9 6 -3 13 1 16 9 3 9 13 16 21 16 9 0
22 8 30 18 8 10 11 11 7 2 -7 -12 -5 -13 8 -3 8 7 19 9 23 5 5 -4 5 -2 2 4 -3
6 3 18 13 27 13 11 20 12 24 4 2 -7 5 -4 5 7 1 16 3 17 18 5 11 -10 14 -10 9
-1 -4 7 -2 12 4 12 6 0 8 5 4 12 -5 7 -3 8 5 4 7 -5 20 -1 29 7 9 8 25 13 35
12 9 -2 15 1 12 6 -3 4 6 11 20 15 13 3 22 10 19 16 -3 5 0 9 7 8 21 -3 59 11
59 21 0 5 3 8 8 8 20 -3 25 2 12 12 -12 9 -12 10 4 5 11 -4 24 0 33 11 8 10
12 12 8 6 -3 -8 6 -6 24 5 17 9 31 20 31 24 0 4 7 5 15 2 8 -4 15 -1 15 5 0 6
7 11 16 11 9 0 12 5 8 13 -4 6 -4 9 1 5 4 -4 15 -2 23 5 13 10 14 9 8 -1 -4
-7 7 -4 25 7 18 11 36 18 41 15 4 -3 8 2 8 10 0 10 6 13 15 10 9 -4 18 1 21
11 5 13 9 14 15 3 6 -10 9 -8 9 7 0 16 2 17 9 5 6 -8 7 -18 5 -22 -3 -4 2 -5
11 -1 13 5 14 7 3 14 -7 5 -9 9 -4 9 5 0 3 7 -4 15 -7 9 -19 14 -26 11 -8 -3
-11 0 -7 10 3 7 0 14 -6 14 -6 0 -11 -10 -11 -22 0 -19 -2 -20 -10 -8 -8 13
-13 13 -31 2 -11 -8 -18 -9 -15 -3 4 6 -6 4 -21 -4 -21 -11 -30 -12 -42 -2
-12 9 -13 9 -7 0 4 -8 2 -13 -4 -13 -6 0 -8 -6 -4 -12 4 -7 -3 -4 -15 6 -20
18 -21 18 -15 2 6 -16 4 -17 -14 -7 -17 9 -23 8 -31 -6 -8 -14 -11 -15 -11 -3
-1 12 -3 11 -14 -3 -14 -18 -14 -18 -19 0 -4 16 -5 16 -6 1 0 -10 -8 -19 -16
-19 -23 -2 -28 -4 -51 -16 -16 -9 -24 -9 -32 -1 -9 9 -12 9 -12 0 0 -6 -7 -9
-15 -6 -8 4 -15 1 -15 -5 0 -6 -5 -11 -11 -11 -5 0 -7 5 -3 11 4 7 1 10 -7 7
-8 -3 -13 -10 -12 -15 1 -5 -7 -9 -17 -9 -11 0 -16 6 -13 16 4 9 -1 7 -10 -5
-8 -11 -19 -17 -23 -13 -4 4 -13 0 -21 -10 -8 -9 -12 -11 -8 -4 8 15 -11 16
-21 1 -4 -8 -9 -7 -15 2 -5 8 -9 9 -9 4 0 -6 -11 -12 -26 -13 -14 -1 -34 -7
-46 -13 -16 -9 -19 -8 -12 3 6 11 5 11 -9 -1 -9 -7 -17 -10 -17 -7 0 4 -9 2
-19 -4 -14 -7 -21 -6 -24 3 -4 9 -6 9 -6 0 -1 -7 -8 -10 -16 -7 -8 4 -15 1
-15 -5 0 -6 -5 -11 -11 -11 -5 0 -7 6 -3 13 4 6 -2 4 -13 -6 -11 -9 -22 -14
-25 -11 -4 3 -17 0 -30 -7 -20 -10 -21 -10 -11 2 9 11 7 14 -12 14 -13 0 -21
-3 -18 -7 5 -9 -11 -12 -41 -8 -10 1 -16 -2 -13 -7 3 -4 -19 -7 -49 -6 -39 1
-53 -2 -48 -10 5 -8 3 -8 -7 1 -15 14 -33 16 -25 3 4 -5 -2 -8 -11 -6 -10 2
-18 4 -18 5 0 1 -8 3 -18 5 -9 2 -15 -1 -11 -6 3 -5 1 -9 -5 -9 -5 0 -12 6
-14 13 -4 8 -8 9 -14 2 -10 -14 -56 -17 -48 -4 4 5 2 9 -4 9 -5 0 -12 -6 -14
-12 -4 -10 -8 -9 -16 2 -6 8 -11 10 -11 4 0 -7 -7 -15 -16 -18 -15 -6 -15 -4
-3 10 13 16 12 16 -11 3 -35 -19 -60 -20 -52 -1 5 13 2 13 -18 -1 -22 -16 -25
-15 -44 1 -11 9 -16 11 -12 4 10 -16 -25 -13 -36 3 -5 6 -8 5 -8 -2 0 -7 -6
-10 -12 -8 -33 12 -68 13 -62 3 4 -7 2 -8 -4 -4 -7 4 -33 10 -59 13 -27 3 -50
9 -53 13 -3 4 -14 6 -25 4 -10 -2 -24 1 -30 5 -5 5 -18 7 -27 6 -10 -2 -18 0
-18 4 0 4 -7 8 -15 9 -8 1 -22 3 -30 4 -8 1 -15 5 -15 9 0 4 -12 9 -27 11 -18
2 -27 8 -25 17 3 12 0 12 -12 2 -13 -11 -17 -10 -22 3 -3 9 -11 13 -17 9 -5
-3 -16 2 -24 12 -7 11 -13 15 -13 11 0 -5 -7 -3 -15 4 -8 7 -15 9 -15 5 0 -5
-8 2 -19 13 -10 12 -23 22 -29 22 -5 0 -23 15 -39 33 -15 18 -23 26 -18 17 9
-13 8 -13 -7 -1 -10 7 -18 20 -18 28 0 8 -5 11 -12 7 -8 -5 -9 -2 -5 9 3 9 1
19 -5 23 -7 5 -8 2 -3 -7 4 -8 -1 -5 -12 6 -11 11 -19 23 -16 28 2 4 -1 7 -6
7 -6 0 -11 6 -11 14 0 8 -9 22 -21 30 -13 9 -18 19 -14 27 5 8 4 10 -3 5 -8
-5 -12 0 -12 13 0 12 -5 21 -11 21 -6 0 -9 7 -6 15 4 8 1 17 -5 21 -7 5 -8 2
-3 -6 5 -9 4 -11 -4 -6 -6 4 -9 11 -6 16 3 5 -1 23 -10 41 -9 17 -17 44 -17
59 -1 16 -5 27 -10 24 -4 -3 -8 -1 -8 5 0 5 5 13 11 16 7 5 4 15 -6 32 -10 14
-13 23 -8 20 5 -4 10 0 10 8 0 8 -3 14 -6 13 -20 -2 -22 4 -5 17 14 11 15 14
3 9 -10 -3 -20 0 -25 7 -4 7 -3 10 3 6 6 -4 16 0 23 8 11 13 10 15 -6 9 -18
-5 -18 -5 -1 9 14 12 15 16 4 20 -8 3 -19 2 -23 -1 -5 -4 2 3 16 15 l25 23
-24 -5 c-22 -4 -22 -3 -7 14 20 22 21 38 1 21 -13 -11 -14 -10 -9 4 3 9 11 16
18 16 6 0 5 4 -4 9 -8 6 -18 7 -22 5 -4 -3 -8 0 -8 5 0 6 9 11 21 11 19 0 19
1 4 16 -14 15 -14 17 2 31 10 8 13 12 6 9 -6 -4 -14 -2 -18 4 -3 5 2 10 12 11
16 0 16 1 -2 9 -14 6 -15 9 -5 10 13 0 12 3 -2 13 -15 12 -15 14 1 24 10 6 18
18 18 27 0 8 -4 13 -8 11 -7 -5 -23 24 -21 38 3 10 -2 9 -16 -5z m14 -20 c5
-7 3 -8 -6 -3 -9 5 -10 2 -6 -13 4 -11 3 -23 -2 -25 -6 -5 -9 39 -3 51 3 5 10
1 17 -10z m-89 -144 c-3 -3 -12 -4 -19 -1 -8 3 -5 6 6 6 11 1 17 -2 13 -5z
m-3 -26 c-3 -4 -9 -8 -15 -8 -5 0 -9 4 -9 8 0 5 7 9 15 9 8 0 12 -4 9 -9z
m-457 -183 c0 -8 -4 -12 -9 -9 -5 3 -6 10 -3 15 9 13 12 11 12 -6z m203 -77
c0 7 5 10 11 6 8 -4 7 -9 -2 -15 -15 -9 -29 -3 -29 14 0 7 4 6 10 -3 7 -11 10
-11 10 -2z m-60 -237 c0 -4 -7 -8 -15 -8 -16 0 -20 9 -9 20 8 8 24 -1 24 -12z
m64 -157 c3 -8 2 -12 -4 -9 -6 3 -10 10 -10 16 0 14 7 11 14 -7z m-69 -24 c-3
-5 -12 -10 -18 -10 -7 0 -6 4 3 10 19 12 23 12 15 0z m42 -15 c0 -8 -4 -15 -9
-15 -10 0 -11 14 -1 23 9 10 10 9 10 -8z m50 -170 c0 -8 -4 -12 -9 -9 -5 3 -6
10 -3 15 9 13 12 11 12 -6z m-332 -54 c3 -5 1 -12 -5 -16 -5 -3 -10 1 -10 9 0
18 6 21 15 7z m295 -5 c0 -2 -7 -6 -15 -10 -8 -3 -15 -1 -15 4 0 6 7 10 15 10
8 0 15 -2 15 -4z m-410 -10 c0 -3 -4 -8 -10 -11 -5 -3 -10 -1 -10 4 0 6 5 11
10 11 6 0 10 -2 10 -4z m-203 -21 c0 -8 -4 -12 -9 -9 -5 3 -6 10 -3 15 9 13
12 11 12 -6z m631 -50 c-3 -3 -9 2 -12 12 -6 14 -5 15 5 6 7 -7 10 -15 7 -18z
m-191 -104 c0 -11 -7 -17 -14 -14 -9 4 -9 8 0 19 16 17 16 17 14 -5z m-413
-17 c5 -14 4 -15 -9 -4 -17 14 -19 20 -6 20 5 0 12 -7 15 -16z m496 5 c0 -15
-18 -19 -23 -6 -3 8 1 14 9 14 8 0 14 -4 14 -8z m306 -221 c4 -7 4 -10 -1 -6
-4 4 -14 3 -22 -3 -8 -8 -13 -8 -13 -1 0 6 6 13 13 15 6 3 13 6 14 6 1 1 5 -5
9 -11z m-329 -113 c0 -8 -4 -12 -9 -9 -5 3 -6 10 -3 15 9 13 12 11 12 -6z m43
11 c0 -2 -7 -7 -16 -10 -8 -3 -12 -2 -9 4 6 10 25 14 25 6z m342 -534 c-3 -10
-1 -13 6 -8 7 4 12 5 12 2 0 -15 -20 -14 -29 2 -7 14 -6 19 4 19 7 0 11 -7 7
-15z m198 -22 c0 -5 -5 -10 -11 -10 -5 0 -7 5 -4 10 3 6 8 10 11 10 2 0 4 -4
4 -10z m403 -1124 c4 -10 1 -13 -8 -9 -8 3 -12 9 -9 14 7 12 11 11 17 -5z"/>
<path d="M2250 4786 c0 -12 -5 -16 -15 -12 -8 3 -15 1 -15 -5 0 -6 -4 -7 -10
-4 -5 3 -10 0 -10 -7 0 -9 -3 -9 -10 2 -5 8 -10 10 -10 4 0 -6 -15 -15 -32
-21 -24 -7 -32 -14 -30 -29 2 -15 -1 -14 -13 6 -11 16 -14 18 -10 6 5 -17 4
-17 -12 -5 -9 8 -14 9 -10 2 4 -7 0 -17 -10 -23 -15 -9 -14 -10 6 -4 21 5 22
4 10 -9 -8 -8 -20 -12 -28 -9 -11 4 -11 1 -1 -17 11 -21 10 -22 -12 -10 -20
11 -22 11 -10 -3 14 -18 0 -34 -19 -22 -7 4 -7 -2 1 -17 11 -19 10 -24 -4 -35
-12 -8 -13 -13 -5 -16 8 -3 4 -17 -14 -43 -21 -31 -24 -42 -14 -54 9 -11 9
-13 0 -8 -6 4 -14 3 -18 -3 -3 -5 -1 -10 4 -10 6 0 11 -11 11 -24 0 -13 6 -27
13 -29 9 -4 8 -8 -3 -16 -13 -9 -13 -11 2 -11 12 0 15 -5 11 -17 -5 -12 -3
-14 7 -8 10 6 12 4 7 -10 -5 -11 -1 -23 10 -32 10 -8 11 -11 3 -7 -12 6 -13 5
-3 -7 6 -8 12 -18 12 -24 1 -5 7 -10 14 -10 6 0 11 -8 11 -18 -1 -9 2 -15 6
-12 4 3 23 -9 41 -25 19 -16 42 -30 52 -30 9 0 17 -4 17 -10 0 -5 9 -10 21
-10 11 0 18 -4 15 -8 -3 -5 5 -8 17 -7 27 2 48 -5 42 -14 -2 -4 2 -8 10 -8 8
0 12 3 10 7 -2 4 2 7 10 7 8 0 12 -4 9 -9 -11 -18 27 -19 44 -1 9 10 14 14 10
9 -15 -18 -8 -27 8 -12 14 15 35 21 57 17 5 -1 5 4 2 10 -5 7 1 10 16 8 27 -4
52 8 44 21 -3 5 3 7 15 5 11 -2 23 1 26 7 5 7 2 8 -7 4 -8 -4 -6 -1 3 7 10 8
14 18 10 22 -4 5 -2 5 5 2 6 -4 18 -4 27 -1 13 5 14 9 5 20 -10 12 -8 13 7 8
10 -4 16 -4 12 0 -4 5 5 19 20 32 15 13 23 24 17 24 -5 0 -10 11 -10 24 0 13
3 22 8 19 16 -10 28 9 15 25 -8 10 -8 13 -1 9 18 -11 22 16 4 38 -15 18 -15
19 0 7 14 -10 18 -10 23 4 9 22 8 24 -11 24 -15 0 -15 1 2 13 12 10 14 16 7
21 -7 4 -12 16 -12 27 0 14 -4 18 -12 13 -9 -5 -9 -2 1 9 12 15 11 17 -5 17
-11 0 -15 4 -9 8 18 13 16 32 -3 25 -14 -6 -15 -4 -5 8 10 12 8 17 -8 28 -12
7 -18 19 -15 27 3 8 -1 14 -9 14 -8 0 -15 5 -15 11 0 5 5 7 12 3 7 -4 8 -3 4
4 -4 7 -13 12 -21 12 -7 0 -17 9 -20 20 -3 11 -13 20 -21 20 -8 0 -14 5 -14
11 0 5 -4 8 -9 5 -5 -3 -12 1 -15 10 -3 9 -12 14 -19 11 -6 -2 -21 1 -32 6
-20 11 -37 16 -67 19 -10 1 -18 7 -18 13 0 5 -5 3 -10 -5 -7 -11 -10 -11 -10
-2 0 8 -5 10 -12 5 -19 -11 -52 -10 -60 2 -5 6 -8 2 -8 -9z"/>
<path d="M1515 4749 c-4 -6 -5 -12 -2 -15 2 -3 7 2 10 11 7 17 1 20 -8 4z"/>
<path d="M1990 4590 c-13 -8 -12 -10 3 -10 9 0 17 5 17 10 0 12 -1 12 -20 0z"/>
<path d="M1980 4540 c-8 -5 -12 -12 -9 -15 4 -3 12 1 19 10 14 17 11 19 -10 5z"/>
<path d="M1436 4392 c-3 -5 1 -9 9 -9 8 0 12 4 9 9 -3 4 -7 8 -9 8 -2 0 -6 -4
-9 -8z"/>
<path d="M1410 4126 c0 -2 8 -10 18 -17 15 -13 16 -12 3 4 -13 16 -21 21 -21
13z"/>
<path d="M3994 3958 c-4 -6 -3 -8 4 -4 6 3 13 2 17 -4 3 -6 -3 -10 -16 -10
-17 0 -19 -3 -10 -14 6 -7 9 -21 5 -30 -7 -19 5 -20 29 -2 12 9 14 16 8 21 -6
3 -11 1 -11 -6 0 -7 -3 -10 -6 -6 -14 14 7 27 27 17 11 -6 16 -16 13 -22 -4
-7 -2 -8 5 -4 9 6 9 11 -1 24 -11 14 -10 15 7 9 17 -6 18 -5 4 5 -9 7 -19 20
-22 28 -4 8 -5 4 -3 -9 l5 -23 -20 21 c-23 24 -25 25 -35 9z"/>
<path d="M3950 3931 c0 -12 29 -35 36 -28 4 3 -1 13 -9 22 -17 17 -27 19 -27
6z"/>
<path d="M4020 3875 c-7 -8 -16 -13 -19 -10 -4 2 -8 -2 -8 -10 0 -21 10 -19
25 5 7 12 18 18 24 14 7 -4 8 -3 4 4 -9 15 -11 15 -26 -3z"/>
<path d="M1220 3871 c0 -6 4 -13 10 -16 6 -3 7 1 4 9 -7 18 -14 21 -14 7z"/>
<path d="M4043 3853 c9 -2 14 -9 11 -15 -4 -7 -2 -8 5 -4 15 10 4 26 -17 25
-15 -1 -15 -2 1 -6z"/>
<path d="M3565 3840 c-3 -6 1 -7 9 -4 18 7 21 14 7 14 -6 0 -13 -4 -16 -10z"/>
<path d="M4015 3829 c-11 -16 -1 -19 13 -3 7 8 8 14 3 14 -5 0 -13 -5 -16 -11z"/>
<path d="M2595 3710 c-3 -5 -1 -10 4 -10 6 0 11 5 11 10 0 6 -2 10 -4 10 -3 0
-8 -4 -11 -10z"/>
<path d="M1263 3694 c0 -10 4 -11 13 -3 8 7 14 6 17 -1 3 -6 5 -6 3 1 -3 17
-33 20 -33 3z"/>
<path d="M315 3499 c-4 -6 -14 -8 -23 -4 -12 4 -11 1 4 -16 l19 -22 -23 14
c-20 12 -24 12 -32 -1 -5 -8 -10 -10 -10 -4 0 5 5 15 11 21 8 8 4 11 -14 10
-21 -2 -23 -5 -14 -16 9 -10 2 -9 -22 3 -20 11 -30 13 -25 5 5 -9 2 -10 -10
-6 -10 4 -15 3 -11 -3 3 -6 1 -10 -5 -10 -7 0 -5 -7 4 -16 19 -19 21 -31 3
-16 -9 8 -17 8 -27 0 -12 -8 -12 -9 3 -4 9 3 17 2 18 -2 0 -4 2 -15 4 -24 2
-11 -5 -20 -18 -24 -20 -6 -19 -7 6 -21 29 -15 28 -32 -1 -34 -11 0 -13 -2 -4
-6 21 -8 67 -57 64 -68 -2 -5 2 -5 9 2 9 9 17 9 32 2 11 -6 17 -7 14 -2 -3 5
-2 15 2 22 6 10 11 9 24 -3 17 -17 32 -22 22 -7 -3 6 3 9 14 8 15 -1 17 -4 9
-14 -6 -7 -7 -13 -2 -13 17 0 46 62 34 74 -5 5 -10 15 -10 21 0 5 5 2 11 -7 5
-10 17 -18 26 -18 14 0 14 2 -3 16 -10 8 -12 12 -4 8 12 -6 13 -4 3 7 -17 17
-17 34 0 23 7 -5 4 -1 -6 9 -19 17 -19 17 4 18 13 0 18 3 12 6 -14 5 -18 49
-5 56 4 2 1 2 -6 0 -8 -1 -20 4 -28 12 -11 11 -12 15 -3 15 7 0 10 2 7 5 -11
12 -37 -7 -30 -23 5 -14 4 -15 -10 -2 -11 11 -13 19 -6 28 6 6 8 12 5 12 -3 0
-9 -5 -12 -11z m-110 -29 c3 -5 1 -10 -4 -10 -6 0 -11 5 -11 10 0 6 2 10 4 10
3 0 8 -4 11 -10z"/>
<path d="M1430 3489 c0 -5 5 -7 10 -4 6 3 10 8 10 11 0 2 -4 4 -10 4 -5 0 -10
-5 -10 -11z"/>
<path d="M405 3430 c3 -5 8 -10 11 -10 2 0 4 5 4 10 0 6 -5 10 -11 10 -5 0 -7
-4 -4 -10z"/>
<path d="M136 3404 c-5 -14 -4 -15 9 -4 17 14 19 20 6 20 -5 0 -12 -7 -15 -16z"/>
<path d="M380 3295 c-7 -9 -8 -15 -2 -15 5 0 12 7 16 15 3 8 4 15 2 15 -2 0
-9 -7 -16 -15z"/>
<path d="M154 3289 c-4 -7 -3 -10 4 -5 6 3 15 -2 21 -11 5 -10 12 -15 15 -12
4 3 -2 14 -13 23 -14 13 -21 14 -27 5z"/>
<path d="M1070 3260 c0 -5 5 -10 11 -10 5 0 7 5 4 10 -3 6 -8 10 -11 10 -2 0
-4 -4 -4 -10z"/>
<path d="M1706 3253 c-6 -14 -5 -15 5 -6 7 7 10 15 7 18 -3 3 -9 -2 -12 -12z"/>
<path d="M4016 3247 c3 -10 9 -15 12 -12 3 3 0 11 -7 18 -10 9 -11 8 -5 -6z"/>
<path d="M4006 3204 c-5 -14 -4 -15 9 -4 17 14 19 20 6 20 -5 0 -12 -7 -15
-16z"/>
<path d="M4037 3203 c-10 -10 -8 -23 4 -23 5 0 8 4 5 9 -4 5 0 12 6 14 7 3 8
6 2 6 -6 1 -14 -2 -17 -6z"/>
<path d="M1890 3189 c0 -5 5 -7 10 -4 6 3 10 8 10 11 0 2 -4 4 -10 4 -5 0 -10
-5 -10 -11z"/>
<path d="M3990 3170 c0 -5 3 -9 8 -9 18 3 32 -2 32 -12 0 -6 -7 -9 -15 -5 -13
4 -14 2 -5 -14 6 -11 13 -20 16 -20 3 0 3 4 0 8 -3 5 1 9 9 9 20 0 19 -3 -7
-29 -12 -12 -19 -15 -16 -7 3 9 -2 20 -11 26 -13 8 -17 7 -17 -8 0 -9 5 -15
10 -12 5 3 6 1 2 -6 -4 -6 -15 -9 -25 -6 -12 3 -17 -1 -18 -15 -1 -13 2 -18 9
-14 6 4 8 3 4 -4 -3 -6 1 -17 10 -26 8 -9 13 -20 9 -25 -3 -5 -1 -12 4 -16 6
-3 8 -12 5 -19 -3 -8 0 -17 5 -21 6 -3 8 -12 4 -18 -4 -8 -1 -7 9 1 11 9 18
10 23 2 3 -6 12 -7 18 -3 7 4 7 0 -1 -10 -8 -9 -11 -20 -8 -25 3 -5 -4 -9 -17
-8 -13 1 -21 -4 -19 -12 1 -9 -5 -8 -22 3 -16 11 -26 13 -31 5 -3 -6 -10 -8
-15 -5 -11 7 -7 -22 5 -32 4 -5 4 -1 0 7 -8 13 -7 13 8 1 9 -7 17 -19 17 -25
0 -7 -3 -7 -8 -1 -4 6 -15 11 -24 13 -12 2 -16 -3 -13 -19 3 -15 0 -19 -10
-15 -9 3 -12 0 -8 -10 10 -27 29 -13 24 19 0 4 3 7 8 7 11 0 36 -30 25 -30 -5
0 -2 -5 6 -11 12 -9 12 -10 -4 -5 -14 5 -17 2 -12 -9 4 -13 2 -14 -14 -5 -26
14 -27 13 -27 -15 0 -14 3 -25 8 -25 5 0 9 -5 9 -11 0 -6 -7 -9 -15 -5 -12 4
-13 2 -6 -13 6 -10 7 -21 4 -25 -3 -3 -1 -6 6 -6 8 0 11 6 7 16 -3 8 -2 13 3
9 5 -3 8 6 7 19 -3 23 19 44 32 31 3 -3 0 -5 -6 -5 -16 0 -11 -48 6 -55 8 -3
19 -2 25 1 7 3 4 -1 -6 -9 -10 -9 -18 -18 -17 -22 1 -4 -2 -10 -6 -13 -4 -4
-5 -2 -1 3 3 6 -3 12 -14 12 -10 1 -19 -3 -19 -8 0 -6 4 -8 9 -4 5 3 12 1 16
-5 4 -6 11 -7 17 -4 7 5 8 2 4 -5 -5 -7 -15 -10 -25 -7 -11 4 -10 2 4 -10 11
-8 19 -20 17 -25 -1 -6 3 -7 9 -3 7 4 10 2 7 -7 -3 -8 -11 -13 -17 -11 -6 1
-11 -3 -11 -8 0 -6 6 -10 13 -9 25 3 38 -1 32 -11 -3 -5 -13 -7 -23 -4 -14 5
-15 4 -2 -5 13 -9 12 -12 -5 -26 -20 -16 -20 -16 2 -6 29 15 38 14 24 -2 -8
-10 -7 -17 2 -26 9 -9 9 -14 -3 -21 -8 -5 -10 -10 -5 -10 6 0 4 -4 -4 -9 -8
-5 -16 -17 -17 -25 -1 -9 2 -14 7 -10 5 3 7 9 4 14 -3 4 2 10 9 13 8 3 17 1
19 -6 2 -7 3 10 2 36 -1 31 2 46 9 44 6 -2 10 -13 9 -23 -1 -10 0 -13 3 -6 3
6 11 9 17 5 7 -4 6 1 -2 10 -11 14 -11 17 0 17 12 0 12 2 0 9 -8 5 -21 6 -30
3 -13 -5 -14 -3 -4 10 7 8 10 18 6 21 -3 4 -1 7 6 7 8 0 11 7 7 15 -5 15 1 18
39 17 17 -1 17 0 3 4 -10 3 -18 10 -18 15 0 5 8 9 18 10 10 0 12 3 5 6 -7 2
-13 9 -13 14 0 4 6 6 14 3 8 -3 17 0 22 7 4 8 3 10 -4 5 -7 -4 -12 -3 -12 2 0
16 13 22 27 11 8 -7 13 -8 13 -1 0 13 -29 24 -43 15 -7 -3 -8 -2 -4 3 5 5 21
9 35 9 17 0 27 6 27 15 1 8 6 14 13 12 7 -1 12 2 12 8 0 5 -10 8 -22 6 -13 -2
-22 -9 -20 -15 1 -6 -2 -11 -8 -11 -13 0 -13 17 0 25 6 3 10 11 10 16 0 6 -4
8 -8 5 -5 -3 -9 1 -9 9 0 13 3 13 18 -1 12 -11 19 -12 24 -4 6 9 10 9 16 -1 6
-10 9 -10 9 -2 0 17 -21 27 -29 14 -11 -17 -32 35 -24 56 6 16 5 17 -12 3 -11
-9 -16 -10 -11 -2 7 11 -5 17 -27 13 -5 -1 -6 3 -2 9 3 6 11 8 16 5 5 -3 6 1
3 9 -3 9 -1 16 5 16 6 0 10 -3 10 -7 -3 -21 2 -33 12 -27 6 3 15 0 20 -7 7
-10 8 -8 6 8 -2 12 -7 26 -12 30 -4 5 -5 2 -1 -4 4 -8 1 -13 -8 -13 -9 0 -15
3 -15 8 3 20 -2 33 -13 31 -25 -3 -38 1 -38 12 0 8 6 7 18 -2 16 -13 16 -13
-1 7 -9 11 -14 24 -10 28 4 4 1 11 -6 16 -12 7 -12 11 2 24 9 9 14 23 10 31
-4 11 -1 13 11 9 9 -3 13 -10 10 -15 -8 -14 6 -10 22 6 10 9 11 15 4 15 -6 0
-10 10 -9 23 2 12 0 27 -4 34 -4 6 -2 15 4 19 7 4 9 3 5 -4 -7 -12 12 -11 33
2 9 6 18 3 28 -9 7 -11 13 -15 13 -11 0 5 6 3 13 -3 8 -6 18 -7 23 -3 4 4 2
-2 -6 -12 -12 -15 -12 -20 -2 -23 6 -3 9 -10 5 -16 -4 -8 -1 -7 9 1 13 10 17
10 22 0 3 -7 3 -2 -1 12 -5 22 -4 23 10 11 13 -10 14 -18 7 -35 -10 -20 -10
-20 6 2 17 22 41 32 28 10 -4 -7 -3 -8 4 -4 6 4 9 12 6 20 -3 7 2 13 11 13 8
0 14 -7 13 -16 -2 -9 5 -16 17 -18 14 -1 15 0 3 3 -17 5 -14 34 4 34 5 0 7 -4
4 -9 -9 -13 16 -20 36 -10 12 7 20 4 27 -8 9 -17 10 -17 16 0 6 13 11 15 21 6
7 -6 19 -7 25 -3 9 5 10 2 6 -9 -6 -16 -4 -16 17 -2 21 14 24 14 30 0 4 -12
11 -13 23 -7 10 5 24 7 31 5 6 -3 12 -1 12 4 0 5 9 9 20 10 11 1 18 -2 16 -6
-7 -10 71 -8 81 3 5 5 3 6 -4 2 -7 -4 -13 -3 -13 2 0 6 6 12 14 15 10 4 13 -1
11 -19 -1 -13 2 -27 7 -30 4 -3 8 -2 7 3 -3 20 2 27 11 13 8 -12 10 -12 10 -1
0 11 3 11 17 0 11 -10 14 -10 9 -1 -4 6 -2 12 3 12 6 0 11 4 11 8 0 5 -7 9
-15 9 -8 0 -11 -5 -8 -10 3 -6 1 -7 -5 -3 -16 10 -15 27 1 25 27 -3 38 1 31
14 -5 8 -2 8 9 -2 18 -14 23 -26 8 -17 -11 7 -8 -20 3 -31 4 -4 6 -3 4 4 -2 6
0 10 3 10 3 -1 13 4 22 11 10 9 17 10 22 2 7 -12 25 -4 25 12 0 5 -8 7 -17 4
-10 -4 -14 -4 -10 0 4 4 1 14 -6 23 -11 14 -10 14 6 2 16 -12 20 -12 35 3 16
17 16 18 -8 11 -17 -5 -22 -4 -15 3 6 5 19 12 30 14 13 2 20 11 19 25 -1 13 3
20 7 17 5 -3 7 -9 4 -14 -3 -5 3 -14 12 -20 17 -11 17 -11 1 -6 -11 3 -22 -2
-28 -14 -6 -11 -8 -20 -4 -20 3 0 2 -6 -4 -13 -8 -9 -8 -17 0 -27 8 -13 9 -12
5 2 -3 9 1 19 8 22 9 3 12 12 8 22 -5 13 -1 12 15 -4 27 -27 27 -32 4 -27 -11
2 -19 -3 -19 -10 0 -7 8 -12 18 -10 10 2 21 0 24 -5 3 -5 13 -6 22 -3 9 4 14
2 10 -3 -3 -6 4 -11 15 -11 20 -2 20 -1 2 13 -17 14 -17 15 -1 10 27 -9 43
-13 35 -9 -13 8 -9 20 7 20 8 0 15 -5 15 -11 0 -6 7 2 16 19 10 19 11 31 5 33
-6 2 -9 8 -5 13 3 5 0 8 -8 7 -7 -2 -12 3 -11 10 2 6 -2 12 -8 12 -6 0 -8 -7
-5 -16 3 -8 2 -12 -4 -9 -6 3 -10 1 -10 -5 0 -7 7 -10 18 -6 9 3 5 -3 -11 -15
-15 -11 -25 -24 -23 -28 3 -4 -5 -7 -17 -6 -12 1 -25 -2 -28 -8 -4 -5 -9 -5
-13 2 -4 6 -3 11 3 11 7 0 7 8 0 26 -5 15 -8 29 -5 31 2 2 8 -10 14 -26 8 -22
16 -29 26 -25 9 3 13 10 10 15 -3 5 -10 6 -16 3 -6 -4 -8 -2 -4 4 3 6 2 13 -4
17 -12 8 -13 45 -1 45 5 0 7 -10 3 -22 -3 -14 -2 -19 7 -14 6 4 8 13 5 19 -5
8 -3 8 7 0 15 -15 29 -17 29 -5 0 5 -12 14 -26 20 -14 7 -23 16 -20 20 3 5 -1
9 -8 9 -9 0 -12 -7 -8 -16 5 -14 2 -13 -21 2 -15 9 -27 15 -27 11 0 -4 -6 -1
-13 5 -10 8 -14 7 -15 -4 -1 -8 -3 -21 -4 -29 -1 -8 -7 -12 -13 -10 -7 3 -18
-2 -25 -11 -7 -8 -16 -15 -21 -15 -4 0 2 10 14 23 12 13 25 22 28 21 3 -2 6 3
6 10 0 8 -7 12 -16 11 -9 -2 -19 -4 -23 -4 -5 -1 -8 -6 -8 -12 0 -5 6 -7 13
-3 6 3 -1 -5 -18 -20 -16 -14 -34 -25 -38 -26 -5 0 -5 -5 -2 -11 4 -6 14 -8
24 -4 12 5 13 4 4 -6 -10 -10 -15 -10 -27 0 -12 10 -16 9 -25 -6 -6 -10 -11
-13 -11 -6 0 6 11 20 25 31 13 11 21 23 17 27 -4 3 -1 5 7 3 7 -2 16 3 18 10
4 9 -1 10 -20 3 -14 -5 -28 -7 -32 -3 -3 3 -3 -1 0 -9 3 -9 -2 -22 -12 -30
-16 -13 -17 -12 -5 3 9 11 10 18 2 23 -6 3 -7 12 -3 18 3 7 -3 4 -14 -6 -11
-9 -23 -14 -27 -10 -4 4 -4 0 0 -10 5 -15 3 -16 -17 -9 -50 17 -80 -4 -37 -27
22 -11 10 -9 -29 5 -12 4 -8 -3 10 -20 25 -25 30 -55 6 -40 -5 3 -7 9 -4 14 3
4 -2 13 -10 20 -18 15 -19 7 -4 -23 9 -19 8 -20 -3 -6 -20 24 -24 25 -40 11
-13 -10 -17 -10 -21 0 -4 11 -6 10 -6 0 -1 -7 -6 -10 -13 -6 -6 4 -8 3 -5 -3
4 -6 0 -13 -8 -17 -22 -8 -18 11 6 27 12 9 16 18 10 21 -5 4 -17 -4 -27 -16
-12 -17 -15 -18 -10 -5 3 10 2 16 -3 12 -5 -3 -8 1 -7 7 3 21 16 38 29 38 8 0
8 -3 -2 -9 -9 -6 -10 -11 -2 -15 6 -4 11 -1 11 6 0 9 3 9 10 -2 7 -12 10 -12
10 -1 0 7 6 11 14 8 10 -4 13 -1 9 9 -4 11 -9 12 -18 4 -8 -7 -15 -7 -19 -1
-3 5 -1 11 6 13 9 3 9 6 0 12 -7 4 -12 2 -12 -3 0 -6 -5 -11 -11 -11 -5 0 -7
6 -3 13 4 6 -2 3 -14 -7 -19 -17 -26 -15 -24 5 1 3 -6 6 -13 6 -11 0 -12 -4
-4 -14 15 -18 -16 -30 -36 -13 -8 7 -20 8 -27 3 -20 -13 -59 -11 -54 3 3 9 -3
10 -24 4 -17 -5 -32 -4 -38 2 -7 7 -16 1 -26 -18 -15 -25 -16 -26 -10 -5 5 19
3 23 -10 18 -8 -3 -18 -2 -22 4 -4 6 -11 6 -20 -2 -7 -6 -12 -15 -9 -19 3 -5
1 -11 -5 -15 -5 -3 -10 -1 -10 4 0 6 -7 11 -16 11 -8 0 -13 4 -10 9 3 4 -9 7
-27 7 -18 -1 -35 3 -39 8 -5 7 -8 6 -8 -2 0 -7 -4 -11 -9 -7 -5 3 -13 0 -17
-6 -4 -7 -3 -9 2 -6 5 3 10 -3 10 -14 0 -19 -1 -19 -13 -3 -9 12 -13 14 -13 4
0 -7 -3 -10 -6 -7 -4 4 1 19 11 34 l18 28 -25 -22 c-27 -26 -38 -29 -38 -11 0
6 3 8 7 5 3 -4 11 0 18 9 9 13 6 22 -14 45 -25 29 -51 38 -51 19z m995 -40
c16 -17 16 -20 3 -15 -9 4 -19 13 -22 21 -7 19 -2 18 19 -6z m-215 -39 c-6
-12 -8 -27 -4 -34 5 -9 4 -9 -5 -1 -9 8 -9 17 0 38 7 14 14 24 16 22 3 -2 0
-14 -7 -25z m-501 -7 c7 4 9 1 5 -7 -10 -27 16 -29 27 -3 7 15 17 22 23 18 6
-4 20 -7 31 -7 12 0 20 -6 19 -16 -1 -12 4 -15 18 -11 15 4 17 7 6 13 -9 6 -9
9 -1 9 6 0 15 -5 19 -11 5 -8 10 -6 16 5 8 14 12 15 38 1 32 -17 41 -19 38 -7
-2 4 0 7 3 7 3 0 14 7 25 15 18 14 18 14 3 -5 -9 -11 -15 -30 -13 -42 3 -19 0
-23 -24 -21 -15 1 -32 6 -39 10 -6 5 -14 5 -18 -2 -3 -6 -12 -7 -18 -3 -19 12
-37 12 -37 0 0 -6 -6 -4 -12 5 -15 18 -59 18 -81 0 -11 -10 -17 -9 -26 2 -14
16 -45 10 -34 -7 4 -6 1 -7 -7 -2 -10 6 -7 12 11 27 21 16 21 17 4 12 -16 -5
-17 -4 -5 5 11 8 12 11 2 11 -7 0 -10 5 -6 11 5 8 9 8 14 -1 4 -7 13 -10 19
-6z m461 0 c0 -2 -7 -4 -15 -4 -8 0 -15 4 -15 10 0 5 7 7 15 4 8 -4 15 -8 15
-10z m384 -25 c-3 -5 -10 -7 -15 -4 -5 4 -9 2 -9 -3 0 -5 -7 -9 -16 -9 -12 0
-10 5 7 18 23 17 45 16 33 -2z m-252 -21 c-7 -7 -12 -8 -12 -2 0 6 3 14 7 17
3 4 9 5 12 2 2 -3 -1 -11 -7 -17z m-98 -14 c3 -8 2 -12 -4 -9 -6 3 -10 10 -10
16 0 14 7 11 14 -7z m-734 -36 c0 -7 5 -6 14 1 8 7 17 8 20 3 3 -6 -1 -15 -10
-22 -8 -7 -12 -20 -9 -29 3 -11 1 -10 -10 3 -8 10 -12 23 -8 29 3 6 1 7 -5 3
-6 -4 -8 -14 -5 -23 4 -11 3 -14 -6 -9 -7 5 -10 14 -7 21 2 7 0 17 -5 22 -5 5
-1 9 11 10 11 1 20 -3 20 -9z m-45 -136 c-6 -7 -34 11 -29 19 3 5 11 3 19 -4
7 -6 12 -13 10 -15z m-50 -101 c3 -5 2 -12 -3 -15 -5 -3 -9 1 -9 9 0 17 3 19
12 6z m69 -114 c-2 -7 5 -22 17 -33 l22 -19 -12 23 c-7 13 -10 26 -7 30 3 3 6
0 6 -6 0 -7 5 -12 11 -12 5 0 7 5 3 12 -4 6 -3 8 4 4 14 -8 7 -47 -10 -57 -7
-5 -13 -13 -13 -19 0 -5 -3 -10 -7 -10 -32 0 -33 0 -20 8 10 7 8 12 -7 26 -16
14 -17 21 -7 41 11 25 29 36 20 12z"/>
<path d="M4305 3060 c-15 -16 -21 -18 -34 -7 -14 11 -14 10 -2 -6 11 -14 16
-15 28 -5 9 7 26 13 39 14 29 1 39 9 25 19 -6 3 -11 1 -11 -6 0 -8 -3 -9 -13
0 -11 8 -18 6 -32 -9z"/>
<path d="M4436 3065 c-3 -9 -10 -14 -15 -10 -5 3 -13 0 -17 -7 -4 -7 -4 -10 1
-6 4 4 14 3 21 -3 8 -7 14 -7 19 1 3 6 12 7 18 3 18 -12 54 -10 54 2 0 6 -7
11 -16 11 -24 1 -45 8 -52 17 -3 5 -9 1 -13 -8z m49 -23 c-3 -3 -11 0 -18 7
-9 10 -8 11 6 5 10 -3 15 -9 12 -12z"/>
<path d="M4039 2973 c-13 -16 -12 -17 4 -4 9 7 17 15 17 17 0 8 -8 3 -21 -13z"/>
<path d="M3986 2612 c-3 -5 3 -17 13 -26 11 -10 22 -13 25 -8 3 5 -3 17 -13
26 -11 10 -22 13 -25 8z m25 -19 c13 -16 12 -17 -3 -4 -17 13 -22 21 -14 21 2
0 10 -8 17 -17z"/>
<path d="M4056 3172 c-2 -4 -1 -14 4 -22 7 -11 9 -9 7 8 -1 24 -3 26 -11 14z"/>
<path d="M3042 3150 c2 -7 -3 -15 -11 -18 -9 -3 -11 0 -6 9 5 8 -1 6 -12 -4
-16 -14 -22 -15 -26 -5 -3 7 -5 3 -3 -10 1 -12 12 -30 24 -38 22 -15 23 -15
18 10 -3 15 -1 24 5 21 5 -4 12 1 15 10 5 11 10 13 19 5 6 -5 14 -9 16 -7 2 1
1 -2 -3 -7 -10 -13 11 -48 24 -40 7 4 6 9 -3 15 -11 7 -10 12 5 26 18 16 19
16 7 1 -11 -15 -11 -19 2 -24 9 -3 21 -2 28 2 8 4 9 3 5 -4 -4 -7 -14 -12 -22
-12 -8 0 -14 -4 -14 -9 0 -21 -33 -20 -51 1 -10 13 -18 18 -19 13 0 -6 5 -16
12 -23 7 -7 10 -12 8 -13 -3 0 -20 -2 -38 -4 -26 -3 -32 0 -28 11 3 9 2 12 -5
9 -6 -4 -8 -14 -5 -24 5 -14 4 -14 -7 1 -8 10 -16 16 -19 13 -2 -3 -5 1 -5 9
0 8 8 13 19 11 10 -2 18 0 18 4 0 16 -13 20 -31 10 -14 -7 -19 -6 -19 3 0 6
-6 3 -14 -8 -8 -10 -12 -21 -10 -24 3 -2 10 2 15 10 8 11 9 7 6 -15 -2 -16 -2
-25 0 -18 2 7 11 9 19 6 7 -3 11 -9 8 -14 -3 -5 -2 -9 3 -8 21 4 34 -2 27 -13
-4 -7 -3 -8 5 -4 6 4 8 13 5 19 -5 9 -3 9 6 0 11 -10 11 -15 0 -30 -12 -15
-12 -16 0 -5 20 18 35 15 19 -4 -20 -24 -19 -39 3 -53 19 -12 20 -12 4 10 -14
21 -14 24 1 41 9 10 13 18 10 18 -4 0 2 9 13 20 21 21 35 27 26 11 -4 -5 2 -8
11 -6 10 1 17 8 15 15 -1 6 3 10 10 7 7 -2 12 -10 10 -16 -1 -7 2 -10 8 -6 6
3 8 10 5 14 -2 5 7 6 20 3 16 -3 25 0 25 9 0 7 3 9 6 6 4 -4 1 -14 -7 -24 -8
-9 -9 -14 -3 -10 7 4 17 0 24 -8 13 -16 43 -9 33 9 -4 7 -2 7 7 -1 11 -10 11
-15 -1 -30 -13 -16 -12 -17 3 -5 9 8 21 11 27 8 5 -3 11 1 14 9 4 9 1 12 -9 8
-7 -3 -14 0 -14 7 0 6 4 9 9 6 5 -4 12 0 14 6 4 10 6 10 6 1 1 -16 41 -17 41
-1 0 6 3 8 6 5 4 -4 2 -12 -4 -20 -8 -9 -8 -17 0 -27 8 -12 9 -12 4 3 -3 10 0
17 8 17 7 0 18 11 24 24 9 19 8 27 -4 36 -8 7 -14 9 -14 4 0 -4 -5 -3 -11 3
-6 6 -18 9 -25 6 -8 -3 -14 -1 -14 5 0 11 18 11 35 0 6 -3 22 -4 38 -2 25 2
32 -5 28 -30 -1 -5 5 -6 14 -2 9 3 19 6 21 6 2 0 4 5 4 11 0 5 -4 8 -9 4 -16
-9 -23 15 -10 33 11 14 11 15 -1 5 -8 -7 -22 -13 -33 -13 -12 0 -16 4 -11 13
4 6 -2 3 -14 -7 -12 -11 -23 -16 -23 -13 -1 4 -2 11 -3 16 0 5 -5 13 -9 18 -5
4 -7 1 -5 -7 2 -8 -3 -14 -10 -15 -7 0 -17 -7 -23 -15 -8 -12 -9 -10 -4 8 4
13 2 22 -4 22 -10 0 -15 -12 -13 -30 0 -4 -10 -6 -24 -6 -15 0 -23 5 -21 14 1
8 -4 17 -12 20 -8 2 -11 0 -8 -5 3 -5 0 -10 -7 -10 -7 0 -13 6 -13 14 0 7 3
11 5 8 3 -3 11 0 19 6 9 9 13 8 13 0 0 -6 6 -10 13 -8 7 1 11 -6 9 -17 -2 -10
1 -15 7 -12 5 4 9 15 8 26 -1 10 -3 17 -5 15 -3 -2 -12 0 -22 5 -10 5 -20 6
-24 3 -13 -13 -45 -13 -42 0 1 6 1 9 -1 5 -3 -5 -11 -8 -19 -8 -9 0 -12 5 -8
12 4 7 3 8 -5 4 -6 -4 -9 -12 -6 -17 9 -13 -9 -11 -24 4 -11 10 -12 9 -6 -2 6
-10 2 -11 -16 -6 -13 4 -30 12 -37 18 -10 8 -12 7 -10 -3z m-28 -35 c-4 -8
-11 -15 -16 -15 -6 0 -5 6 2 15 7 8 14 15 16 15 2 0 1 -7 -2 -15z m161 6 c3
-5 0 -13 -6 -17 -8 -4 -9 -3 -5 4 9 15 1 15 -27 1 -21 -10 -21 -10 -3 5 23 18
32 20 41 7z m60 -71 c3 -6 -1 -7 -9 -4 -18 7 -21 14 -7 14 6 0 13 -4 16 -10z
m135 0 c0 -5 -2 -10 -4 -10 -3 0 -8 5 -11 10 -3 6 -1 10 4 10 6 0 11 -4 11
-10z m-306 -14 c-8 -21 -31 -27 -44 -11 -10 12 -8 13 9 10 11 -2 23 0 26 6 9
14 15 11 9 -5z m160 -12 c3 -8 2 -12 -4 -9 -6 3 -10 10 -10 16 0 14 7 11 14
-7z"/>
<path d="M2955 3110 c-3 -5 -1 -10 4 -10 6 0 11 5 11 10 0 6 -2 10 -4 10 -3 0
-8 -4 -11 -10z"/>
<path d="M3039 3103 c-7 -10 -9 -15 -4 -10 4 4 20 -3 33 -15 l25 -23 -17 26
c-9 14 -13 29 -9 32 3 4 2 7 -4 7 -6 0 -17 -8 -24 -17z"/>
<path d="M3752 3100 c-10 -16 -17 -18 -31 -11 -12 7 -21 7 -28 0 -8 -8 -13 -7
-17 0 -4 6 -2 11 5 11 7 0 9 3 6 6 -4 4 -13 1 -22 -6 -8 -7 -15 -9 -15 -5 0 4
-6 2 -14 -4 -11 -10 -17 -8 -25 6 -6 10 -11 13 -11 7 0 -11 -49 -12 -67 -1 -6
4 -14 3 -18 -3 -4 -7 -14 -6 -28 2 -20 10 -21 10 -9 -5 10 -12 25 -15 55 -12
29 3 37 2 27 -5 -8 -5 -12 -10 -7 -10 4 0 0 -14 -8 -31 -19 -36 -15 -45 14
-30 16 9 22 8 29 -5 7 -13 11 -14 23 -2 16 15 54 24 45 10 -5 -8 34 -10 42 -2
7 8 30 4 50 -9 13 -7 22 -10 20 -5 -2 5 2 10 7 12 6 1 10 -2 10 -7 0 -5 3 -13
7 -17 4 -3 6 3 3 15 -3 15 1 21 15 21 28 0 21 31 -15 68 -29 31 -30 32 -43 12z
m37 -14 c15 -18 23 -59 10 -51 -5 4 -9 1 -9 -5 0 -6 -4 -9 -9 -5 -5 3 -12 1
-16 -5 -5 -8 -34 0 -51 14 0 1 -8 -5 -17 -13 -12 -10 -21 -10 -30 -3 -14 12
-35 11 -55 -2 -8 -5 -18 -4 -24 2 -8 8 -17 8 -30 1 -18 -9 -18 -8 -8 11 6 11
15 18 20 15 5 -3 11 -1 15 5 3 5 1 10 -5 10 -18 0 -6 23 14 26 9 1 20 -4 23
-13 5 -12 7 -12 14 -1 10 15 29 18 46 6 6 -5 14 -5 18 2 4 7 12 7 25 0 13 -7
21 -6 30 5 15 19 24 19 39 1z"/>
<path d="M3755 3076 c-13 -9 -25 -11 -37 -5 -10 6 -19 5 -23 -1 -4 -6 -12 -7
-18 -3 -17 11 -38 13 -32 3 3 -4 -2 -11 -10 -14 -9 -3 -18 0 -21 8 -3 7 -12
13 -21 13 -14 0 -14 -2 1 -12 15 -11 15 -13 1 -19 -9 -3 -13 -11 -10 -16 4 -7
11 -7 18 -2 16 12 49 12 65 -1 8 -6 16 -6 25 1 19 16 21 16 42 5 16 -9 26 -8
43 6 19 14 21 19 10 34 -12 16 -15 16 -33 3z m20 -6 c-3 -5 -1 -10 6 -10 7 0
4 -6 -6 -14 -13 -9 -25 -11 -36 -5 -9 4 -19 5 -23 2 -3 -3 -6 0 -6 7 0 10 -5
9 -19 -4 -15 -14 -20 -14 -29 -3 -15 17 -3 30 14 16 8 -7 14 -7 19 1 4 6 12 7
23 1 12 -6 24 -5 37 5 22 17 29 18 20 4z"/>
<path d="M3750 3049 c0 -5 5 -7 10 -4 6 3 10 8 10 11 0 2 -4 4 -10 4 -5 0 -10
-5 -10 -11z"/>
<path d="M3813 3105 c0 -7 8 -10 19 -7 10 2 18 6 18 7 0 1 -8 5 -18 7 -11 3
-19 0 -19 -7z"/>
<path d="M3890 3110 c0 -5 5 -10 11 -10 5 0 7 5 4 10 -3 6 -8 10 -11 10 -2 0
-4 -4 -4 -10z"/>
<path d="M4407 3109 c7 -7 15 -10 18 -7 3 3 -2 9 -12 12 -14 6 -15 5 -6 -5z"/>
<path d="M4616 3110 c14 -20 12 -45 -3 -45 -21 0 -15 -20 7 -21 11 -1 17 3 14
7 -3 5 0 9 5 9 6 0 10 3 9 8 -1 4 3 17 10 30 8 14 9 22 2 22 -5 0 -10 -7 -10
-17 0 -14 -3 -14 -22 3 -13 10 -18 12 -12 4z"/>
<path d="M3931 3096 c-12 -14 -40 -14 -60 -1 -5 3 -12 1 -16 -5 -4 -6 -10 -8
-15 -5 -5 3 -11 1 -14 -4 -4 -5 -2 -12 4 -16 6 -4 8 -11 5 -16 -4 -5 0 -9 7
-9 8 -1 4 -8 -9 -19 l-23 -19 48 2 c28 2 46 7 45 14 -2 6 4 9 12 5 12 -4 13
-9 5 -18 -8 -10 -8 -15 1 -21 7 -4 9 -3 5 4 -3 6 -2 13 4 17 6 4 8 10 5 15 -3
5 0 12 6 16 7 4 9 3 5 -4 -3 -6 2 -15 11 -21 17 -10 17 -10 -2 -11 -11 -1 -14
-4 -7 -7 6 -2 10 -8 8 -12 -3 -4 1 -8 8 -8 17 0 14 29 -7 61 -10 15 -15 31
-12 36 3 6 1 10 -6 10 -8 0 -8 4 1 15 7 8 10 15 7 15 -2 0 -10 -6 -16 -14z
m-50 -50 c5 -6 7 -1 5 10 -3 15 1 20 18 20 17 0 23 -6 22 -20 -1 -15 -7 -20
-20 -18 -12 2 -17 -1 -13 -10 3 -10 -4 -14 -23 -13 -19 0 -25 3 -19 11 5 6 2
20 -8 34 -9 13 -11 20 -5 16 6 -3 14 -1 19 6 5 9 9 7 11 -7 2 -11 8 -24 13
-29z"/>
<path d="M3894 3059 c-4 -7 -3 -9 4 -5 5 3 13 0 15 -6 4 -9 6 -10 6 -1 1 17
-16 25 -25 12z"/>
<path d="M3866 3037 c3 -10 9 -15 12 -12 3 3 0 11 -7 18 -10 9 -11 8 -5 -6z"/>
<path d="M3434 3088 c-4 -6 -3 -8 2 -5 6 3 16 2 23 -3 10 -6 7 -12 -13 -25
-14 -9 -23 -22 -19 -28 4 -6 1 -7 -7 -2 -9 6 -11 4 -5 -5 5 -8 4 -11 -3 -6 -6
4 -9 13 -5 21 11 31 -13 13 -29 -21 -16 -34 -16 -35 2 -19 10 9 23 14 29 11 5
-4 12 -2 16 4 4 6 10 8 14 6 18 -12 61 -14 55 -4 -5 7 -1 9 9 5 17 -6 42 24
30 37 -3 3 -1 6 6 6 7 0 10 4 6 9 -3 6 -15 8 -27 6 -12 -3 -32 2 -45 10 -27
18 -30 18 -39 3z m80 -30 c-3 -4 1 -8 8 -9 10 0 10 -2 0 -6 -6 -2 -9 -10 -6
-15 4 -7 2 -8 -5 -4 -6 4 -9 11 -6 16 3 4 -2 10 -10 14 -8 3 -17 1 -20 -4 -4
-6 -1 -10 5 -10 7 0 10 -5 8 -11 -4 -13 -24 -11 -20 2 1 5 -2 9 -8 9 -5 0 -10
-5 -10 -12 0 -6 -3 -8 -7 -4 -10 10 33 42 57 42 10 0 16 -4 14 -8z"/>
<path d="M5036 3092 c-3 -6 1 -15 8 -21 8 -7 17 -8 20 -3 3 6 -1 15 -8 21 -8
7 -17 8 -20 3z"/>
<path d="M446 3069 c2 -4 13 -6 24 -4 11 2 22 1 24 -3 6 -11 -98 -9 -105 1 -4
5 -7 -1 -8 -14 0 -13 -3 -40 -4 -59 -2 -19 1 -42 7 -50 8 -11 3 -10 -19 3
l-30 18 29 -26 c23 -21 26 -29 16 -38 -10 -9 -11 -9 -5 2 5 9 4 12 -3 7 -6 -4
-9 -13 -6 -21 4 -8 10 -12 15 -9 5 3 8 0 7 -8 -2 -7 3 -12 10 -10 8 1 11 -2 7
-8 -5 -8 -11 -8 -20 0 -10 8 -15 8 -21 -1 -4 -7 -3 -9 3 -6 5 3 17 -3 26 -14
10 -11 22 -17 27 -14 19 11 89 11 80 0 -6 -7 -2 -11 10 -12 10 -1 24 5 31 13
9 11 15 12 25 3 11 -9 14 -8 14 5 0 10 5 14 10 11 6 -4 7 -11 4 -17 -5 -7 -2
-8 5 -4 7 5 10 10 7 14 -3 3 2 11 12 19 9 8 11 12 5 8 -12 -6 -19 21 -14 49 1
5 -1 16 -5 25 -13 29 -12 40 1 35 7 -3 16 0 21 7 4 7 3 10 -4 5 -14 -8 -21 14
-12 39 6 17 4 21 -12 22 -11 1 -29 12 -40 25 -15 16 -19 18 -15 6 3 -10 2 -20
-3 -23 -5 -3 -10 2 -12 12 -2 12 -14 17 -45 18 -23 1 -40 -2 -37 -6z"/>
<path d="M3003 3067 c0 -7 11 -13 23 -13 20 0 25 11 6 11 -4 0 -12 3 -18 7 -6
4 -11 1 -11 -5z"/>
<path d="M3390 3070 c0 -5 5 -10 11 -10 5 0 7 5 4 10 -3 6 -8 10 -11 10 -2 0
-4 -4 -4 -10z"/>
<path d="M4145 3070 c-4 -6 -9 -8 -13 -6 -4 2 -8 -7 -8 -20 -1 -13 1 -24 5
-25 42 -5 55 -4 67 8 15 15 9 38 -7 28 -5 -4 -12 1 -15 9 -7 18 -20 21 -29 6z
m50 -23 c5 5 4 1 -3 -8 -12 -16 -45 -19 -59 -5 -5 4 -3 7 2 6 21 -5 36 0 30
10 -4 6 -11 7 -17 4 -7 -5 -8 -2 -4 5 6 9 12 9 25 -3 10 -9 22 -13 26 -9z"/>
<path d="M1323 3053 c-18 -7 -16 -23 5 -40 13 -11 13 -13 2 -10 -8 2 -20 14
-26 26 -10 18 -12 20 -18 6 -5 -13 -9 -14 -28 -4 -21 11 -22 11 -9 -5 12 -14
12 -16 -1 -11 -10 4 -14 -2 -14 -19 0 -14 4 -22 9 -19 5 3 6 -4 2 -17 -5 -17
-4 -21 5 -15 9 5 11 4 6 -4 -4 -6 -11 -9 -16 -6 -4 3 -14 -3 -21 -13 -12 -15
-12 -16 2 -5 18 15 29 8 29 -19 0 -12 4 -16 12 -12 6 4 8 3 5 -4 -9 -14 3 -43
14 -36 5 3 9 0 9 -6 0 -7 -7 -9 -16 -6 -8 3 -12 2 -9 -4 3 -5 14 -8 23 -6 33
6 52 18 45 29 -3 6 -1 7 6 3 9 -6 9 -11 1 -21 -8 -10 -8 -15 1 -21 7 -4 9 -3
5 4 -3 6 -1 14 5 18 6 3 15 0 20 -7 7 -11 9 -11 9 -1 0 9 10 12 28 10 15 -2
26 -8 25 -15 -3 -13 22 -12 34 2 4 4 3 5 -3 2 -7 -4 -14 0 -17 8 -4 9 -1 12 9
8 10 -4 14 2 14 22 0 15 -4 24 -10 20 -6 -4 -8 6 -6 23 3 27 1 29 -27 26 -22
-3 -34 2 -45 17 -8 12 -22 19 -32 16 -9 -2 -17 1 -17 9 0 7 4 11 8 9 4 -3 6 3
5 12 -2 10 2 23 8 28 6 6 9 9 7 8 -2 -2 -9 3 -15 11 -6 8 -17 12 -23 9z m17
-19 c0 -8 -5 -12 -10 -9 -6 4 -8 11 -5 16 9 14 15 11 15 -7z m30 -78 c0 -2 -7
-7 -16 -10 -8 -3 -12 -2 -9 4 6 10 25 14 25 6z m71 -43 c13 -16 12 -17 -3 -4
-10 7 -18 15 -18 17 0 8 8 3 21 -13z m-134 -75 c-3 -8 -6 -5 -6 6 -1 11 2 17
5 13 3 -3 4 -12 1 -19z"/>
<path d="M1407 3043 c-2 -5 -3 -16 -2 -25 2 -10 -1 -18 -6 -18 -5 0 -9 -4 -9
-9 0 -13 58 17 71 37 10 16 10 16 5 0 -3 -12 -1 -15 10 -11 11 4 12 9 5 16
-15 15 -51 19 -51 6 0 -5 6 -7 13 -3 8 5 8 2 -2 -9 -7 -9 -19 -17 -25 -17 -6
0 -4 5 4 10 11 7 11 10 2 10 -7 0 -10 5 -7 10 3 6 4 10 1 10 -3 0 -7 -3 -9 -7z"/>
<path d="M1376 3025 c-3 -8 -1 -15 4 -15 6 0 10 7 10 15 0 8 -2 15 -4 15 -2 0
-6 -7 -10 -15z"/>
<path d="M1431 2991 c-25 -19 -18 -32 15 -27 12 2 18 10 16 22 -5 25 -4 25
-31 5z m23 -9 c2 -4 -5 -9 -17 -9 -17 -2 -19 0 -7 7 18 12 18 12 24 2z"/>
<path d="M346 2992 c-3 -5 1 -9 9 -9 8 0 15 4 15 9 0 4 -4 8 -9 8 -6 0 -12 -4
-15 -8z"/>
<path d="M3430 2989 c0 -5 5 -7 10 -4 6 3 10 8 10 11 0 2 -4 4 -10 4 -5 0 -10
-5 -10 -11z"/>
<path d="M3700 2990 c0 -5 7 -7 15 -4 8 4 15 8 15 10 0 2 -7 4 -15 4 -8 0 -15
-4 -15 -10z"/>
<path d="M4455 2990 c3 -5 8 -10 11 -10 2 0 4 5 4 10 0 6 -5 10 -11 10 -5 0
-7 -4 -4 -10z"/>
<path d="M4515 2991 c-3 -5 -2 -12 3 -15 5 -3 9 1 9 9 0 17 -3 19 -12 6z"/>
<path d="M608 2943 c7 -3 16 -2 19 1 4 3 -2 6 -13 5 -11 0 -14 -3 -6 -6z"/>
<path d="M2992 2935 c4 -5 2 -15 -5 -24 -10 -14 -10 -14 4 -3 14 10 18 10 23
-4 8 -22 8 -24 -6 -20 -7 1 -10 1 -5 -1 4 -3 7 -9 7 -14 0 -6 -4 -8 -9 -4 -5
3 -12 1 -15 -4 -4 -5 -2 -12 4 -16 6 -4 7 -11 4 -17 -5 -7 -2 -8 7 -2 21 14
53 11 61 -6 4 -9 6 -5 5 12 -1 21 -4 25 -15 16 -10 -9 -16 -8 -23 3 -13 21
-11 33 4 20 10 -8 14 -7 14 4 0 8 -5 11 -10 8 -6 -4 -8 0 -4 10 4 10 -3 21
-21 33 -15 9 -24 13 -20 9z m28 -81 c0 -8 -19 -13 -24 -6 -3 5 1 9 9 9 8 0 15
-2 15 -3z"/>
<path d="M3985 2915 c2 -16 4 -32 4 -34 1 -2 8 2 16 9 8 7 15 9 15 4 0 -5 4
-2 9 6 13 19 2 34 -14 20 -10 -8 -16 -7 -24 7 -8 15 -9 13 -6 -12z"/>
<path d="M4087 2909 c7 -7 15 -10 18 -7 3 3 -2 9 -12 12 -14 6 -15 5 -6 -5z"/>
<path d="M615 2890 c3 -5 8 -10 11 -10 2 0 4 5 4 10 0 6 -5 10 -11 10 -5 0 -7
-4 -4 -10z"/>
<path d="M1053 2865 c0 -8 4 -12 9 -9 4 3 5 -2 1 -11 -4 -13 -8 -14 -14 -4 -4
7 -17 13 -28 14 -11 1 -18 -2 -15 -7 4 -5 13 -7 22 -3 12 4 12 1 -4 -16 -10
-12 -13 -19 -7 -15 9 5 11 2 7 -8 -3 -9 -10 -14 -14 -11 -5 3 -12 0 -16 -6 -4
-8 -3 -9 4 -5 11 6 17 -12 13 -36 0 -5 4 -8 10 -8 5 0 7 -5 4 -10 -4 -6 -11
-8 -16 -5 -5 3 -6 -1 -3 -9 3 -9 11 -13 18 -9 6 4 5 -1 -3 -10 -9 -11 -10 -17
-2 -17 6 0 11 -5 11 -11 0 -5 -4 -7 -10 -4 -5 3 -10 1 -10 -4 0 -6 4 -11 8
-11 5 0 9 -7 9 -15 0 -8 -4 -15 -9 -15 -5 0 -7 -4 -4 -9 3 -5 17 -8 32 -8 17
0 22 2 13 8 -7 4 -17 5 -21 3 -4 -3 -5 2 -1 11 4 12 8 13 13 4 5 -6 15 -9 25
-6 9 4 14 3 11 -2 -3 -5 5 -8 19 -8 14 0 22 3 19 8 -3 5 2 6 10 3 9 -3 13 -11
9 -18 -4 -6 1 -5 10 3 14 11 17 11 18 0 0 -8 4 -5 9 6 8 19 9 19 9 1 1 -18 2
-18 25 3 13 12 23 30 21 39 -1 9 2 23 8 30 15 20 16 51 1 45 -17 -6 -11 26 7
38 12 7 12 9 -1 10 -10 0 -8 3 5 9 18 8 18 9 -5 10 -18 1 -21 3 -10 8 15 7 20
55 7 69 -4 4 -14 0 -23 -8 -13 -14 -13 -16 0 -16 8 0 12 5 9 10 -4 6 -1 7 6 3
12 -8 7 -21 -7 -21 -4 0 -13 -4 -21 -9 -8 -5 -12 -5 -9 0 3 5 -1 16 -10 24
-14 13 -15 12 -10 -1 5 -13 0 -16 -23 -15 -18 1 -29 7 -30 16 0 10 -3 8 -9 -5
-5 -11 -9 -14 -9 -7 -1 8 -7 12 -13 9 -7 -2 -20 2 -29 9 -13 12 -16 12 -16 -1z"/>
<path d="M5035 2860 c3 -5 8 -10 11 -10 2 0 4 5 4 10 0 6 -5 10 -11 10 -5 0
-7 -4 -4 -10z"/>
<path d="M5003 2852 c-8 -5 -9 -13 -3 -22 8 -13 10 -12 10 3 0 11 4 15 12 11
7 -4 8 -3 4 4 -8 14 -8 14 -23 4z"/>
<path d="M5075 2850 c3 -5 8 -10 11 -10 2 0 4 5 4 10 0 6 -5 10 -11 10 -5 0
-7 -4 -4 -10z"/>
<path d="M5097 2835 c-4 -8 -3 -16 1 -19 4 -3 9 4 9 15 2 23 -3 25 -10 4z"/>
<path d="M5041 2831 c-10 -7 -7 -9 12 -8 14 1 23 5 20 10 -6 9 -15 9 -32 -2z"/>
<path d="M550 2811 c0 -6 4 -13 10 -16 6 -3 7 1 4 9 -7 18 -14 21 -14 7z"/>
<path d="M4153 2794 c-5 -13 -8 -13 -15 -2 -8 11 -9 10 -6 -1 6 -22 34 -21 34
0 0 23 -5 24 -13 3z"/>
<path d="M3936 2784 c-5 -14 -4 -15 9 -4 17 14 19 20 6 20 -5 0 -12 -7 -15
-16z"/>
<path d="M4925 2790 c-2 -3 9 -6 25 -5 15 0 26 3 24 7 -5 8 -44 6 -49 -2z"/>
<path d="M4947 2756 c-4 -9 -3 -15 2 -11 5 3 11 0 13 -7 3 -7 7 -5 11 6 4 9 3
15 -2 11 -5 -3 -11 0 -13 7 -3 7 -7 5 -11 -6z"/>
<path d="M2992 2729 c2 -9 -7 -13 -24 -13 -15 1 -25 -2 -22 -7 2 -4 12 -5 21
-2 11 4 14 3 9 -5 -4 -8 -2 -10 8 -6 19 7 28 31 15 39 -5 4 -8 1 -7 -6z"/>
<path d="M5090 2730 c0 -5 5 -10 11 -10 5 0 7 5 4 10 -3 6 -8 10 -11 10 -2 0
-4 -4 -4 -10z"/>
<path d="M5050 2709 c0 -5 5 -7 10 -4 6 3 10 8 10 11 0 2 -4 4 -10 4 -5 0 -10
-5 -10 -11z"/>
<path d="M5075 2701 c-3 -5 -2 -12 3 -15 5 -3 9 1 9 9 0 17 -3 19 -12 6z"/>
<path d="M3000 2690 c-13 -8 -12 -10 3 -10 10 0 16 -4 12 -10 -3 -5 -12 -7
-19 -4 -17 6 -31 -12 -16 -21 5 -3 10 -11 10 -18 0 -8 -3 -8 -12 1 -15 15 -28
15 -28 1 0 -5 5 -7 10 -4 14 9 12 -8 -2 -25 -11 -12 -10 -12 3 -2 10 7 27 15
39 17 16 3 20 0 16 -11 -3 -9 -6 -18 -6 -20 0 -2 -5 -4 -11 -4 -5 0 -7 5 -4
10 3 6 1 10 -5 10 -7 0 -9 -7 -6 -16 3 -9 6 -18 6 -21 0 -3 7 0 15 7 17 14 21
0 5 -16 -6 -6 -2 -10 12 -11 16 -2 19 0 9 6 -9 6 -10 11 -2 15 6 4 15 5 20 2
10 -7 8 35 -3 52 -3 6 -2 13 4 17 5 3 10 11 10 17 0 5 -9 0 -20 -13 -10 -13
-19 -19 -20 -13 0 5 5 15 12 22 9 9 9 12 1 12 -7 0 -10 9 -8 20 4 22 -2 25
-25 10z m20 -40 c0 -3 -4 -10 -8 -17 -6 -9 -11 -7 -20 7 -10 16 -9 18 8 17 11
-1 20 -4 20 -7z m30 -62 c0 -5 -7 -8 -15 -8 -17 0 -18 2 -9 25 5 13 8 14 15 3
5 -7 9 -16 9 -20z"/>
<path d="M5016 2693 c-3 -4 0 -16 7 -27 11 -18 11 -23 -4 -38 -10 -9 -19 -14
-22 -12 -2 3 -7 -2 -10 -10 -4 -10 -1 -13 7 -10 7 3 13 -2 13 -11 0 -9 -6 -14
-14 -11 -8 3 -12 2 -8 -3 3 -5 0 -11 -7 -13 -7 -3 -5 -7 6 -11 10 -4 15 -3 11
3 -3 6 -1 10 4 10 10 0 15 -13 13 -31 -1 -4 11 -6 26 -6 15 0 21 2 14 4 -6 3
-10 9 -7 14 4 5 -1 6 -9 3 -9 -3 -16 -1 -16 5 0 6 5 11 12 11 6 0 9 3 5 6 -8
8 21 38 39 40 17 3 32 -22 29 -45 -1 -9 0 -10 2 -3 3 6 9 12 14 12 12 0 8 -32
-6 -43 -6 -4 -1 -7 10 -5 12 2 19 -2 17 -10 -1 -7 5 -15 13 -18 8 -3 12 -10
10 -15 -10 -15 25 -71 41 -65 9 3 14 1 12 -7 -1 -6 3 -22 10 -35 7 -12 10 -28
6 -34 -5 -7 -3 -8 5 -4 7 5 10 15 7 25 -5 12 -2 11 9 -3 13 -17 13 -21 -3 -33
-16 -12 -16 -13 2 -6 13 4 17 3 13 -4 -4 -6 0 -18 9 -27 8 -9 18 -28 20 -43 3
-15 7 -30 10 -32 4 -4 8 26 5 43 -1 5 6 5 16 2 13 -5 11 0 -7 19 -14 15 -24
30 -22 33 1 4 -2 7 -7 7 -5 0 -13 3 -17 8 -4 4 -2 7 5 7 8 0 7 5 -3 16 -9 8
-13 20 -10 26 4 7 2 8 -4 4 -7 -4 -12 -2 -12 4 0 6 -4 8 -10 5 -5 -3 -10 1
-10 9 0 24 -22 66 -32 60 -5 -3 -4 -12 3 -20 7 -8 7 -14 1 -14 -14 0 -22 24
-12 40 5 8 5 21 0 31 -5 9 -7 19 -5 23 3 3 -1 2 -7 -4 -18 -15 -32 -12 -19 4
9 10 8 16 -4 26 -8 7 -13 16 -10 20 3 5 -4 11 -15 15 -11 3 -20 11 -20 17 0 6
-8 17 -17 25 -15 12 -15 14 -2 10 9 -3 16 1 16 8 0 8 -7 11 -15 7 -11 -4 -13
-1 -7 9 6 11 5 12 -6 2 -17 -17 -37 -17 -21 -1 7 7 12 15 12 18 0 10 -47 30
-54 23z m44 -28 c0 -15 -21 -12 -30 5 -11 20 -10 21 9 10 12 -6 21 -13 21 -15z
m17 -42 c0 -7 -4 -10 -9 -6 -5 3 -16 -4 -24 -16 -18 -24 -31 -27 -31 -6 0 8 5
11 10 8 6 -4 8 0 4 10 -6 16 3 23 32 23 10 0 18 -6 18 -13z m74 -90 c13 -16
12 -17 -3 -4 -10 7 -18 15 -18 17 0 8 8 3 21 -13z m39 -57 c0 -3 -4 -8 -10
-11 -5 -3 -10 -1 -10 4 0 6 5 11 10 11 6 0 10 -2 10 -4z m105 -174 c-3 -3 0
-11 7 -19 6 -7 9 -15 7 -17 -2 -2 -12 6 -21 18 -13 18 -14 23 -2 23 8 0 12 -3
9 -5z"/>
<path d="M1248 2673 c7 -3 16 -2 19 1 4 3 -2 6 -13 5 -11 0 -14 -3 -6 -6z"/>
<path d="M3940 2670 c0 -13 18 -22 24 -11 3 5 -1 11 -9 15 -8 3 -15 1 -15 -4z"/>
<path d="M1243 2654 c4 -4 -2 -18 -14 -30 -12 -12 -19 -29 -16 -36 4 -8 6 -7
6 5 1 10 6 15 11 12 6 -4 8 -11 5 -16 -4 -5 -1 -9 4 -9 11 0 14 11 12 45 -2
19 -1 19 12 3 8 -10 16 -17 18 -15 2 1 -2 -3 -9 -10 -8 -6 -11 -17 -7 -23 3
-6 1 -9 -5 -8 -7 2 -16 -7 -21 -20 -6 -15 -5 -21 1 -17 6 3 10 1 10 -4 0 -6
-5 -11 -12 -11 -9 0 -9 -3 0 -12 9 -9 9 -15 -1 -27 -9 -12 -9 -13 1 -7 8 4 12
1 12 -9 0 -12 -5 -15 -17 -11 -16 6 -16 5 0 -8 12 -9 14 -16 7 -21 -15 -9 -2
-25 15 -19 10 4 13 0 10 -15 -2 -12 0 -19 5 -16 5 3 19 1 30 -5 17 -9 19 -8
13 7 -5 15 -3 16 7 6 11 -10 17 -10 29 0 9 8 12 8 8 1 -4 -7 2 -14 14 -17 16
-4 19 -2 14 11 -5 13 -3 14 6 5 6 -6 18 -9 27 -6 10 4 13 2 8 -5 -6 -9 -1 -9
18 -1 14 7 23 16 19 22 -3 5 -9 3 -14 -4 -5 -8 -9 -9 -9 -3 0 19 12 24 34 12
18 -9 19 -9 10 3 -15 20 -26 51 -15 44 5 -3 12 -1 16 5 3 5 -1 10 -9 10 -9 0
-16 5 -16 11 0 5 4 8 9 5 5 -4 6 9 1 29 -7 29 -5 35 9 35 14 1 14 2 -1 11 -21
11 -24 30 -5 25 6 -1 9 -1 4 1 -4 3 -5 9 -2 13 3 5 -4 7 -15 5 -12 -2 -23 2
-27 10 -3 8 -9 15 -15 15 -5 0 -6 -4 -3 -10 3 -5 0 -7 -9 -4 -8 3 -12 13 -9
22 4 14 3 14 -5 3 -6 -8 -22 -15 -37 -17 -23 -2 -25 -1 -14 14 8 9 0 6 -15 -8
-16 -14 -27 -20 -24 -15 3 6 -11 21 -31 34 -20 12 -33 20 -28 15z"/>
<path d="M4995 2650 c3 -5 8 -10 11 -10 2 0 4 5 4 10 0 6 -5 10 -11 10 -5 0
-7 -4 -4 -10z"/>
<path d="M3065 2629 c-4 -6 -5 -12 -2 -15 2 -3 7 2 10 11 7 17 1 20 -8 4z"/>
<path d="M805 2610 c-4 -6 -1 -9 6 -8 6 2 14 -3 17 -11 2 -8 0 -11 -6 -8 -5 4
-15 0 -22 -8 -7 -8 -9 -15 -5 -15 5 0 0 -9 -9 -19 -17 -19 -17 -19 1 -17 11 2
18 11 17 24 -1 12 2 19 7 17 4 -3 5 -15 2 -28 -2 -12 -5 -30 -5 -39 1 -11 -5
-15 -16 -11 -14 4 -14 3 -2 -5 8 -6 18 -8 22 -6 4 3 8 0 8 -5 0 -6 -8 -11 -17
-11 -15 0 -16 -2 -3 -9 8 -6 18 -7 24 -4 5 3 6 1 2 -5 -4 -6 -13 -9 -20 -6 -8
3 -17 0 -22 -7 -4 -8 -3 -10 4 -5 7 4 17 4 23 0 8 -4 7 -9 -2 -15 -10 -6 -10
-9 -2 -9 7 0 16 8 22 17 8 16 10 15 16 -8 6 -25 39 -37 50 -18 3 5 0 6 -8 3
-8 -3 -17 -1 -21 4 -7 12 29 8 46 -5 23 -17 39 -25 36 -16 -2 4 1 9 5 10 5 1
15 10 23 20 14 17 15 17 9 -3 -3 -14 -1 -21 8 -21 9 0 12 7 9 19 -2 10 1 18 7
18 7 0 9 -4 6 -10 -4 -6 1 -7 11 -3 13 5 15 3 9 -7 -6 -9 -4 -11 5 -5 10 6 8
12 -9 24 -17 13 -19 19 -9 29 6 6 8 12 4 12 -5 0 -2 8 5 17 12 14 12 15 0 9
-10 -7 -12 -3 -6 14 6 17 4 21 -6 14 -12 -6 -12 -5 0 9 7 10 9 17 3 17 -12 0
-11 18 2 39 6 10 5 12 -2 7 -7 -4 -12 -3 -12 3 0 6 -7 7 -17 4 -11 -4 -14 -3
-9 5 4 7 2 12 -4 12 -7 0 -9 -8 -4 -22 l7 -23 -19 23 c-18 21 -21 21 -47 7
-16 -8 -25 -9 -21 -3 5 8 1 9 -10 5 -14 -6 -17 -3 -12 10 4 12 -1 9 -15 -7
-11 -14 -18 -20 -16 -15 8 15 -30 38 -38 25z m142 -25 c0 -8 -4 -12 -9 -9 -5
3 -6 10 -3 15 9 13 12 11 12 -6z m63 -9 c0 -3 -4 -8 -10 -11 -5 -3 -10 -1 -10
4 0 6 5 11 10 11 6 0 10 -2 10 -4z m7 -111 c0 -8 -4 -12 -9 -9 -5 3 -6 10 -3
15 9 13 12 11 12 -6z"/>
<path d="M895 2610 c3 -5 8 -10 11 -10 2 0 4 5 4 10 0 6 -5 10 -11 10 -5 0 -7
-4 -4 -10z"/>
<path d="M3072 2576 c2 -22 28 -27 28 -4 0 5 -5 6 -12 2 -8 -5 -9 -2 -5 9 3
10 2 17 -3 17 -5 0 -9 -11 -8 -24z"/>
<path d="M2920 2570 c-9 -6 -10 -10 -3 -10 6 0 15 5 18 10 8 12 4 12 -15 0z"/>
<path d="M2945 2550 c-3 -6 1 -7 9 -4 18 7 21 14 7 14 -6 0 -13 -4 -16 -10z"/>
<path d="M4053 2546 c3 -8 2 -17 -4 -20 -5 -2 -4 -3 2 -2 15 3 21 36 7 36 -6
0 -8 -6 -5 -14z"/>
<path d="M3093 2534 c0 -16 6 -17 25 -5 11 6 9 9 -5 13 -12 3 -20 0 -20 -8z"/>
<path d="M4950 2540 c13 -8 8 -14 -11 -12 -3 1 -6 -6 -6 -14 0 -18 3 -18 26 5
17 17 17 20 4 25 -23 9 -30 7 -13 -4z"/>
<path d="M2920 2534 c0 -5 -11 -22 -25 -37 -15 -16 -20 -27 -13 -27 9 0 9 -3
-2 -10 -17 -11 -9 -13 15 -4 10 4 13 9 6 13 -7 5 -5 15 5 30 13 18 18 20 25
10 4 -7 10 -11 13 -9 2 3 -2 14 -10 24 -8 11 -14 16 -14 10z"/>
<path d="M3010 2518 c0 -9 7 -19 16 -22 15 -6 15 -4 3 11 -7 10 -15 20 -16 22
-2 2 -3 -3 -3 -11z"/>
<path d="M3112 2507 c-15 -18 -3 -30 15 -15 11 9 13 5 8 -23 -3 -22 -2 -29 4
-20 10 16 20 3 16 -21 -2 -9 3 -22 10 -28 8 -6 11 -19 8 -28 -4 -12 -1 -12 10
3 18 24 21 40 7 41 -5 1 -13 2 -16 3 -4 0 0 9 7 18 8 9 10 14 4 11 -11 -7 -28
10 -33 32 -2 8 -9 21 -16 28 -10 11 -15 10 -24 -1z m83 -99 c5 4 5 1 1 -6 -6
-10 -11 -10 -22 -1 -8 6 -14 14 -14 16 0 3 6 0 13 -6 8 -6 18 -7 22 -3z"/>
<path d="M4970 2509 c0 -5 5 -7 10 -4 6 3 10 8 10 11 0 2 -4 4 -10 4 -5 0 -10
-5 -10 -11z"/>
<path d="M5016 2501 c-4 -5 3 -7 14 -4 23 6 26 13 6 13 -8 0 -17 -4 -20 -9z"/>
<path d="M4904 2479 c14 -23 14 -27 0 -47 -13 -18 -19 -21 -30 -11 -12 10 -13
9 -8 -6 6 -14 4 -16 -7 -10 -12 8 -12 6 0 -8 16 -20 1 -23 -18 -4 -8 6 -6 0 4
-15 9 -16 20 -28 23 -28 3 0 2 3 -1 7 -4 3 -2 12 4 20 6 7 9 13 6 13 -3 0 10
15 29 34 24 23 31 36 22 39 -10 4 -10 8 2 17 13 10 13 11 -1 7 -9 -3 -22 0
-29 6 -7 7 -5 1 4 -14z"/>
<path d="M3015 2450 c-3 -6 1 -7 9 -4 18 7 21 14 7 14 -6 0 -13 -4 -16 -10z"/>
<path d="M3054 2452 c3 -6 -2 -13 -11 -15 -16 -4 -16 -5 -1 -6 21 -1 32 15 17
25 -7 4 -9 3 -5 -4z"/>
<path d="M3970 2449 c0 -5 5 -7 10 -4 6 3 10 8 10 11 0 2 -4 4 -10 4 -5 0 -10
-5 -10 -11z"/>
<path d="M4881 2451 c-8 -5 -9 -11 -3 -15 5 -3 12 1 16 9 6 17 6 18 -13 6z"/>
<path d="M5030 2456 c0 -2 7 -7 16 -10 8 -3 12 -2 9 4 -6 10 -25 14 -25 6z"/>
<path d="M5013 2435 c0 -7 6 -11 14 -8 7 3 13 6 13 8 0 2 -6 5 -13 8 -8 3 -14
-1 -14 -8z"/>
<path d="M2855 2430 c-8 -13 5 -13 25 0 13 8 13 10 -2 10 -9 0 -20 -4 -23 -10z"/>
<path d="M4030 2432 c0 -5 7 -9 15 -9 8 0 15 4 15 9 0 4 -7 8 -15 8 -8 0 -15
-4 -15 -8z"/>
<path d="M3055 2410 c3 -5 8 -10 11 -10 2 0 4 5 4 10 0 6 -5 10 -11 10 -5 0
-7 -4 -4 -10z"/>
<path d="M5036 2408 c3 -5 10 -6 15 -3 13 9 11 12 -6 12 -8 0 -12 -4 -9 -9z"/>
<path d="M2829 2387 c-7 -15 -15 -24 -19 -22 -4 3 -7 -3 -6 -12 0 -10 -6 -18
-14 -18 -8 0 -16 -6 -16 -12 -1 -7 -2 -18 -3 -24 0 -5 -5 -7 -11 -4 -5 3 -10
2 -10 -4 0 -5 5 -11 12 -13 7 -3 3 -13 -11 -27 -17 -17 -20 -26 -12 -34 8 -8
15 -7 24 3 7 8 8 12 3 8 -21 -17 -26 -7 -9 16 10 13 23 21 28 18 6 -3 3 2 -5
13 -14 17 -13 17 10 11 14 -4 21 -4 15 1 -17 13 -17 36 -1 30 11 -4 13 -1 9
10 -4 11 -2 14 5 9 8 -5 10 -1 5 10 -4 12 -3 15 5 10 8 -5 10 -1 5 10 -4 11
-3 15 5 10 15 -9 27 13 14 26 -8 8 -15 3 -23 -15z"/>
<path d="M4030 2394 c0 -10 -6 -14 -15 -11 -8 4 -17 1 -21 -5 -4 -7 -3 -8 4
-4 7 4 12 2 12 -5 0 -8 3 -9 13 0 8 6 16 8 20 5 3 -3 3 3 0 15 -6 25 -13 27
-13 5z"/>
<path d="M3040 2390 c8 -5 20 -10 25 -10 6 0 3 5 -5 10 -8 5 -19 10 -25 10 -5
0 -3 -5 5 -10z"/>
<path d="M5011 2397 c2 -1 13 -9 24 -17 19 -14 19 -14 6 3 -7 9 -18 17 -24 17
-6 0 -8 -1 -6 -3z"/>
<path d="M3200 2380 c-12 -8 -13 -12 -2 -19 8 -4 14 -12 15 -17 1 -5 4 -8 7
-7 3 1 13 -12 23 -29 16 -28 16 -30 0 -24 -16 6 -16 6 0 -12 9 -10 14 -22 10
-26 -5 -4 -1 -6 7 -4 10 2 14 -4 13 -20 -2 -13 4 -25 12 -28 8 -4 12 -11 8
-18 -4 -7 -1 -7 9 1 8 7 17 11 20 8 2 -3 5 2 5 10 0 10 -4 12 -10 6 -11 -11
-37 -4 -37 10 0 4 6 6 14 3 18 -7 30 12 15 22 -8 4 -9 3 -5 -4 4 -7 2 -12 -3
-12 -10 0 -15 14 -12 33 1 5 -3 6 -9 2 -9 -5 -15 23 -11 48 1 5 -4 5 -10 1 -9
-5 -10 -2 -6 10 5 11 3 15 -5 10 -8 -5 -9 -2 -5 9 4 10 2 16 -6 14 -7 -1 -11
4 -9 11 1 8 -2 11 -9 6 -9 -5 -10 -2 -6 9 7 20 7 20 -13 7z"/>
<path d="M5005 2369 c-4 -6 -4 -13 -1 -16 3 -4 6 -1 6 6 0 7 5 9 12 5 7 -4 8
-3 4 4 -9 15 -13 15 -21 1z"/>
<path d="M3033 2357 c0 -8 6 -14 13 -14 7 0 10 6 7 14 -3 7 -8 13 -12 13 -4 0
-8 -6 -8 -13z"/>
<path d="M3973 2341 c0 -11 5 -18 9 -15 4 3 5 11 1 19 -7 21 -12 19 -10 -4z"/>
<path d="M4010 2336 c25 -28 25 -28 3 -22 -13 4 -23 3 -23 -2 0 -4 14 -8 30
-8 17 0 30 1 30 4 0 5 -20 23 -45 42 -14 10 -13 6 5 -14z"/>
<path d="M4040 2350 c8 -5 20 -10 25 -10 6 0 3 5 -5 10 -8 5 -19 10 -25 10 -5
0 -3 -5 5 -10z"/>
<path d="M4840 2340 c10 -6 11 -10 3 -10 -7 0 -13 -8 -13 -17 0 -15 -2 -16 -9
-3 -6 8 -8 17 -6 20 2 4 -2 7 -10 7 -12 0 -12 -3 -2 -15 9 -12 9 -16 0 -19 -7
-3 -13 -9 -13 -15 0 -7 4 -7 13 0 6 6 15 11 20 11 4 1 16 10 26 20 17 17 17
20 4 25 -23 9 -30 7 -13 -4z"/>
<path d="M3063 2320 c-3 -11 -10 -17 -17 -13 -8 4 -7 2 1 -7 6 -7 9 -19 6 -26
-3 -8 0 -14 7 -14 6 0 9 4 6 9 -4 5 0 12 6 14 10 4 10 6 1 6 -9 1 -10 8 -3 26
5 14 7 25 4 25 -3 0 -8 -9 -11 -20z"/>
<path d="M4995 2329 c-5 -8 -4 -10 3 -5 8 5 12 -1 13 -16 1 -18 2 -19 6 -4 6
23 -12 43 -22 25z"/>
<path d="M4019 2260 c10 -14 17 -31 15 -38 -1 -7 0 -8 3 -2 2 5 10 7 16 3 8
-5 8 -2 0 9 -7 8 -9 19 -5 23 4 5 1 5 -7 0 -11 -6 -13 -3 -9 11 4 14 0 20 -13
20 -17 0 -17 -1 0 -26z"/>
<path d="M4803 2273 c-7 -2 -13 -9 -13 -15 0 -7 5 -7 13 1 8 6 17 8 20 4 4 -3
7 -1 7 5 0 13 -7 14 -27 5z"/>
<path d="M3066 2235 c-9 -26 -7 -32 5 -12 6 10 9 21 6 23 -2 3 -7 -2 -11 -11z"/>
<path d="M3996 2232 c-3 -5 1 -9 9 -9 8 0 15 4 15 9 0 4 -4 8 -9 8 -6 0 -12
-4 -15 -8z"/>
<path d="M4790 2229 c0 -5 5 -7 10 -4 6 3 10 8 10 11 0 2 -4 4 -10 4 -5 0 -10
-5 -10 -11z"/>
<path d="M4955 2230 c3 -5 8 -10 11 -10 2 0 4 5 4 10 0 6 -5 10 -11 10 -5 0
-7 -4 -4 -10z"/>
<path d="M5323 2220 c1 -11 2 -20 4 -20 1 0 7 9 13 20 8 16 8 20 -4 20 -9 0
-14 -8 -13 -20z"/>
<path d="M4771 2210 c14 -31 19 -36 19 -24 0 6 -7 19 -16 30 -14 18 -14 18 -3
-6z"/>
<path d="M2710 2214 c0 -6 6 -17 14 -23 11 -9 16 -9 22 1 4 7 4 10 -1 6 -4 -4
-14 0 -21 10 -7 9 -14 12 -14 6z"/>
<path d="M5342 2199 c-8 -12 -10 -19 -5 -16 4 3 14 -2 22 -11 13 -14 11 -15
-18 -9 -29 6 -31 5 -17 -9 9 -8 16 -17 16 -20 0 -9 -26 2 -38 16 -12 13 -13
13 -9 -1 3 -9 -1 -16 -9 -16 -7 0 -11 4 -8 9 3 4 0 8 -5 8 -6 0 -11 -4 -11
-10 0 -5 -7 -7 -16 -3 -9 3 -19 0 -24 -6 -5 -9 -9 -8 -13 4 -5 10 -3 14 5 9 7
-4 8 -3 4 5 -10 15 -26 4 -26 -17 0 -14 -2 -14 -9 -3 -5 8 -14 10 -21 6 -9 -5
-11 -4 -6 3 4 7 2 12 -3 12 -6 0 -11 -5 -11 -11 0 -5 -5 -7 -11 -4 -6 4 -8 14
-5 22 3 8 1 11 -4 8 -6 -3 -10 -12 -10 -19 0 -11 -9 -12 -52 -7 -3 1 -9 9 -11
19 -4 16 -5 16 -6 0 0 -10 -6 -18 -12 -18 -6 0 -9 7 -5 15 3 8 1 15 -4 15 -6
0 -10 -8 -10 -17 0 -15 -2 -16 -9 -3 -6 8 -8 17 -6 20 2 4 -2 7 -10 7 -8 0
-12 -4 -9 -9 3 -4 0 -8 -6 -8 -6 0 -8 -4 -5 -10 3 -5 1 -10 -4 -10 -6 0 -11 4
-11 8 0 5 -7 9 -15 9 -9 0 -11 -4 -6 -11 7 -8 -3 -11 -32 -10 -119 4 -122 4
-107 14 10 6 4 8 -20 7 -29 -2 -35 1 -33 18 1 17 -2 15 -22 -10 -18 -22 -21
-32 -13 -42 8 -10 7 -12 -6 -7 -14 5 -15 3 -7 -20 8 -20 7 -27 -7 -35 -10 -6
-12 -11 -4 -11 6 0 12 -7 12 -15 0 -8 5 -15 11 -15 8 0 7 -6 -2 -17 -10 -11
-10 -14 -1 -9 7 4 12 1 12 -9 0 -8 7 -18 16 -22 8 -3 13 -12 10 -20 -3 -8 -1
-11 4 -8 6 3 10 1 10 -4 0 -6 7 -11 16 -11 8 0 13 -3 10 -8 -2 -4 9 -15 25
-25 18 -10 27 -12 23 -4 -4 6 2 4 13 -5 21 -20 48 -24 38 -7 -4 6 2 5 13 -2
12 -7 18 -18 15 -24 -4 -5 3 -2 14 8 16 14 23 15 29 6 5 -8 3 -10 -6 -4 -9 5
-11 4 -6 -4 4 -6 13 -8 19 -4 7 4 23 9 37 10 20 3 22 1 10 -7 -8 -5 -10 -10
-4 -10 5 0 16 6 22 12 10 10 17 10 33 0 12 -8 18 -9 14 -3 -3 6 -3 11 2 12 4
0 18 2 31 3 13 2 25 -1 28 -5 2 -5 16 -4 30 1 19 8 23 7 18 -3 -4 -6 -4 -9 1
-5 4 4 15 2 23 -5 13 -9 14 -9 8 1 -4 7 -1 12 8 13 30 3 34 4 43 13 5 5 2 6
-6 1 -10 -6 -12 -4 -7 4 6 9 11 9 22 0 11 -9 14 -9 14 0 0 7 5 9 10 6 6 -3 10
0 10 8 0 8 7 14 16 13 9 0 21 8 28 19 16 29 33 45 39 39 3 -3 3 5 0 18 -3 16
-2 19 5 10 7 -11 11 -8 16 10 11 32 13 107 4 102 -4 -3 -5 2 -1 12 5 13 2 15
-18 10 -13 -3 -18 -3 -11 0 6 3 12 10 12 15 0 6 -4 7 -10 4 -12 -7 -13 7 -2
21 4 5 6 8 4 7 -9 -5 -29 23 -25 34 8 20 -1 15 -15 -8z m-612 -48 c0 -5 -7
-12 -16 -15 -14 -5 -15 -4 -4 9 14 17 20 19 20 6z m40 -11 c0 -5 -5 -10 -11
-10 -5 0 -7 5 -4 10 3 6 8 10 11 10 2 0 4 -4 4 -10z m640 -110 c0 -5 -5 -10
-11 -10 -5 0 -7 5 -4 10 3 6 8 10 11 10 2 0 4 -4 4 -10z"/>
<path d="M4003 2203 c9 -2 17 -9 17 -14 0 -5 -8 -9 -17 -9 -15 0 -16 -2 -3
-10 10 -6 17 -5 23 6 10 18 0 34 -21 33 -15 -1 -15 -2 1 -6z"/>
<path d="M2700 2181 c16 -11 9 -14 -25 -12 -18 1 -18 0 3 -9 30 -13 28 -20 -5
-14 -26 5 -26 5 -7 -13 11 -10 15 -15 10 -10 -18 13 -21 7 -21 -38 0 -25 3
-45 8 -45 4 0 6 -3 5 -7 0 -5 1 -15 5 -23 3 -8 8 -27 11 -42 4 -16 13 -28 22
-28 8 0 12 -4 9 -10 -3 -5 1 -10 9 -10 9 0 16 -4 16 -10 0 -5 9 -10 21 -10 11
0 17 -4 14 -10 -6 -9 16 -15 39 -11 5 1 17 -6 27 -15 14 -13 19 -14 19 -4 0 9
5 7 16 -6 8 -10 13 -14 11 -9 -4 7 25 11 81 12 60 1 82 -2 71 -9 -11 -8 -10
-9 4 -4 10 3 21 6 23 6 3 0 3 4 0 8 -3 5 1 9 9 9 8 0 15 -6 15 -14 0 -7 5 -13
11 -13 5 0 8 4 5 9 -9 14 20 21 34 8 10 -10 12 -8 6 8 -6 20 -6 20 9 1 8 -11
15 -14 15 -7 0 7 5 9 10 6 6 -4 17 -2 24 4 8 7 20 10 27 9 8 -2 13 2 12 8 -1
7 6 10 18 7 15 -4 22 0 26 17 3 12 9 17 12 11 4 -6 12 -2 20 10 9 16 9 19 0
14 -8 -5 -10 -4 -5 3 4 7 14 12 22 12 8 0 12 5 9 10 -4 6 -11 7 -17 4 -7 -4
-8 -2 -4 5 4 6 12 9 17 6 5 -4 9 3 9 15 0 12 4 19 8 16 10 -6 9 24 -1 41 -4 6
-2 15 4 19 8 5 9 3 4 -6 -5 -9 -4 -11 4 -6 6 4 9 12 5 17 -3 5 -9 7 -14 4 -5
-3 -8 4 -7 15 1 11 5 20 9 20 4 0 -3 11 -16 25 -15 16 -30 23 -40 19 -20 -8
-21 -21 -1 -21 8 0 12 4 9 9 -3 4 0 8 6 8 7 0 10 -5 8 -12 -5 -14 -58 -19 -58
-6 0 5 -7 2 -16 -6 -20 -20 -30 -21 -14 -1 7 9 10 18 6 22 -3 3 -6 1 -6 -5 0
-16 -33 -15 -49 1 -7 6 -12 8 -11 2 2 -5 2 -17 0 -25 -1 -11 -3 -10 -9 4 -4
11 -17 20 -29 21 -16 1 -19 -1 -11 -11 17 -21 -33 -4 -52 18 -9 10 -20 18 -24
18 -5 0 -1 -8 8 -18 15 -16 15 -18 -1 -19 -9 -1 -29 -4 -45 -7 -16 -3 -25 -1
-22 5 4 5 -3 6 -17 1 -29 -10 -60 -4 -52 10 4 7 2 8 -5 4 -6 -4 -8 -13 -4 -19
4 -7 -2 -5 -12 3 -17 14 -18 13 -11 -4 7 -20 7 -20 -15 0 -12 10 -19 13 -15 7
4 -7 3 -13 -3 -13 -5 0 -12 8 -14 18 -4 16 -5 16 -6 -1 -1 -15 -5 -16 -21 -7
-15 8 -20 8 -21 -2 0 -7 -4 -4 -9 7 -7 17 -9 17 -9 3 -1 -11 -6 -15 -16 -12
-8 4 -23 0 -33 -7 -15 -13 -16 -12 -3 4 8 9 11 21 7 24 -4 4 -12 1 -17 -7 -8
-12 -9 -10 -7 9 2 15 -3 26 -12 28 -13 4 -13 3 0 -6z m643 -66 c-7 -21 -12
-19 -10 4 0 11 5 18 9 15 4 -3 5 -11 1 -19z"/>
<path d="M4745 2170 c-3 -6 1 -7 9 -4 18 7 21 14 7 14 -6 0 -13 -4 -16 -10z"/>
<path d="M4029 2158 c-1 -7 -1 -16 0 -20 2 -15 -18 -8 -28 10 -6 9 -11 12 -11
7 0 -6 6 -17 12 -23 10 -10 10 -14 0 -21 -9 -5 -2 -8 17 -9 17 0 31 3 31 8 0
5 -7 6 -17 3 -12 -5 -14 -3 -7 8 10 16 16 49 9 49 -3 0 -6 -6 -6 -12z"/>
<path d="M4003 2074 c-3 -7 -10 -11 -17 -7 -6 3 -7 2 -3 -3 15 -16 63 -11 63
6 0 20 -35 24 -43 4z m27 2 c0 -3 -4 -8 -10 -11 -5 -3 -10 -1 -10 4 0 6 5 11
10 11 6 0 10 -2 10 -4z"/>
<path d="M3992 2022 c2 -9 7 -20 12 -23 10 -8 -1 -29 -15 -29 -6 0 -8 4 -4 9
3 5 1 12 -4 15 -5 4 -8 -2 -7 -11 2 -9 8 -19 14 -21 7 -2 9 -9 5 -15 -4 -7 1
-6 10 2 10 8 20 12 22 9 3 -3 -1 -11 -10 -18 -13 -11 -12 -14 6 -29 l21 -17
-21 -24 c-11 -14 -20 -20 -21 -14 0 5 5 15 11 21 14 14 3 33 -19 32 -15 -1
-15 -2 1 -6 20 -5 22 -14 6 -30 -17 -17 -1 -37 17 -22 9 8 14 8 14 1 0 -6 -8
-16 -17 -21 -15 -8 -15 -11 -3 -12 8 -1 19 -1 23 0 5 1 11 -8 14 -20 4 -14 8
-17 13 -8 5 7 0 19 -13 30 -27 23 -15 25 19 3 22 -15 24 -15 18 0 -3 9 -9 14
-13 11 -11 -6 -38 29 -33 43 2 7 8 12 13 12 6 0 8 -4 4 -9 -3 -5 -1 -12 4 -15
20 -13 4 25 -17 40 -12 8 -22 20 -22 27 0 8 3 8 12 -1 7 -7 16 -12 22 -12 5 0
2 6 -9 13 -12 10 -14 16 -7 21 7 4 12 2 12 -3 0 -6 5 -11 10 -11 6 0 4 10 -5
23 -8 13 -12 26 -9 30 12 12 -7 28 -21 17 -9 -8 -14 -7 -18 4 -5 11 2 14 29
11 20 -2 33 0 30 3 -4 3 -22 7 -42 8 -28 3 -34 0 -32 -14z m46 -35 c0 -15 -6
-23 -18 -23 -16 0 -16 2 -3 23 9 13 16 23 18 23 1 0 3 -10 3 -23z"/>
<path d="M1514 1965 c-4 -8 -10 -13 -14 -10 -12 8 -28 -17 -32 -50 -2 -25 0
-30 18 -29 21 0 26 -18 9 -33 -4 -4 -5 -2 -1 5 5 8 0 12 -15 12 -19 0 -20 -2
-8 -16 15 -19 21 -47 8 -38 -5 3 -6 10 -3 16 5 7 2 8 -5 4 -9 -6 -9 -13 3 -29
8 -12 19 -21 24 -20 12 3 11 -29 -2 -47 -10 -13 -9 -13 7 -1 14 11 20 11 35 0
13 -10 12 -8 -3 10 l-20 24 20 -10 c24 -11 55 -11 74 1 11 7 13 5 8 -10 -7
-18 -7 -18 8 0 8 11 15 25 15 30 0 6 -4 5 -9 -2 -7 -11 -9 -11 -14 2 -4 9 -12
15 -19 14 -8 -2 -12 5 -10 17 2 17 1 17 -8 5 -9 -13 -11 -13 -20 0 -5 8 -10
11 -10 7 0 -4 -8 -4 -17 2 -19 10 -24 42 -8 53 6 5 5 8 -3 8 -7 0 -10 5 -6 12
4 7 3 8 -4 4 -7 -4 -12 -1 -12 9 0 9 -4 14 -8 11 -5 -3 -9 2 -9 10 0 10 4 11
11 4 13 -13 39 -13 31 0 -4 6 -10 8 -15 5 -5 -3 -11 -1 -15 4 -3 6 5 8 19 5
14 -2 28 1 32 8 5 8 2 9 -10 5 -14 -5 -17 -3 -12 8 3 8 3 15 0 15 -2 0 -7 -7
-10 -15z m-24 -75 c0 -5 -5 -10 -11 -10 -5 0 -7 5 -4 10 3 6 8 10 11 10 2 0 4
-4 4 -10z m95 -120 c-3 -5 -16 -10 -28 -9 -20 1 -20 2 3 9 14 4 26 8 28 9 2 1
0 -3 -3 -9z m16 -13 c-10 -9 -11 -8 -5 6 3 10 9 15 12 12 3 -3 0 -11 -7 -18z"/>
<path d="M3970 1830 c0 -5 5 -10 10 -10 6 0 10 5 10 10 0 6 -4 10 -10 10 -5 0
-10 -4 -10 -10z"/>
<path d="M3966 1797 c3 -10 3 -17 -2 -16 -20 3 -34 -2 -34 -12 0 -8 6 -7 16 2
15 12 16 11 10 -11 -6 -23 -5 -23 10 4 12 21 13 31 4 40 -8 8 -9 7 -4 -7z"/>
<path d="M3990 1801 c0 -5 7 -11 15 -15 8 -3 15 -1 15 3 0 5 -7 11 -15 15 -8
3 -15 1 -15 -3z"/>
<path d="M3876 1783 c-6 -14 -5 -15 5 -6 7 7 10 15 7 18 -3 3 -9 -2 -12 -12z"/>
<path d="M4034 1768 c0 -20 4 -34 9 -31 4 2 5 9 2 14 -4 5 0 9 7 9 9 0 9 3 2
8 -6 4 -13 14 -16 22 -3 8 -5 -1 -4 -22z"/>
<path d="M4090 1792 c0 -4 9 -13 20 -20 23 -14 26 -7 6 14 -16 15 -26 18 -26
6z"/>
<path d="M4150 1795 c0 -5 5 -17 10 -25 5 -8 10 -10 10 -5 0 6 -5 17 -10 25
-5 8 -10 11 -10 5z"/>
<path d="M4073 1779 c3 -9 0 -22 -6 -28 -9 -9 -8 -11 6 -6 20 8 21 14 6 35 -9
13 -10 13 -6 -1z"/>
<path d="M1470 1770 c0 -5 5 -10 11 -10 5 0 7 -5 3 -12 -4 -7 -3 -8 5 -4 9 6
9 11 0 22 -14 17 -19 18 -19 4z"/>
<path d="M3896 1771 c-3 -5 1 -14 9 -21 10 -9 15 -9 15 -1 0 6 -5 11 -11 11
-5 0 -7 5 -4 10 3 6 4 10 1 10 -3 0 -7 -4 -10 -9z"/>
<path d="M3995 1770 c3 -6 1 -10 -6 -10 -7 0 -10 -3 -6 -6 3 -3 13 -2 22 4 16
8 16 9 1 15 -10 4 -15 3 -11 -3z"/>
<path d="M1648 1758 c-7 -17 15 -19 29 -3 4 4 3 5 -4 2 -6 -4 -13 -2 -15 5 -3
8 -6 6 -10 -4z"/>
<path d="M4137 1755 c-4 -8 -3 -16 1 -19 4 -3 9 4 9 15 2 23 -3 25 -10 4z"/>
<path d="M3873 1745 c0 -8 4 -12 9 -9 5 3 6 10 3 15 -9 13 -12 11 -12 -6z"/>
<path d="M3417 1581 c-4 -17 -3 -21 5 -13 5 5 8 16 6 23 -3 8 -7 3 -11 -10z"/>
<path d="M3487 1567 c-15 -23 -14 -23 18 -23 18 0 31 4 28 9 -2 4 -14 5 -25 1
-17 -5 -18 -3 -9 15 16 28 7 27 -12 -2z"/>
<path d="M3439 1573 c0 -5 -2 -16 -4 -26 -2 -11 -1 -16 3 -13 8 8 14 46 7 46
-3 0 -5 -3 -6 -7z"/>
<path d="M4190 1571 c0 -6 4 -13 10 -16 6 -3 7 1 4 9 -7 18 -14 21 -14 7z"/>
<path d="M3670 1551 c0 -6 4 -13 10 -16 6 -3 7 1 4 9 -7 18 -14 21 -14 7z"/>
<path d="M3743 1530 c0 -24 2 -26 14 -14 12 12 12 16 0 28 -12 12 -14 10 -14
-14z"/>
<path d="M3880 1556 c0 -2 8 -10 18 -17 15 -13 16 -12 3 4 -13 16 -21 21 -21
13z"/>
<path d="M4058 1549 c19 -21 14 -34 -6 -16 -15 14 -19 14 -19 3 0 -8 5 -14 10
-13 6 1 11 -9 11 -23 0 -17 -5 -24 -15 -22 -8 2 -11 0 -7 -4 4 -4 3 -13 -4
-21 -8 -10 -8 -12 4 -8 8 3 21 16 27 29 7 12 19 23 27 23 21 0 17 -15 -7 -27
-11 -7 -18 -14 -15 -18 4 -3 -4 -12 -16 -19 l-23 -14 25 7 c22 6 23 5 11 -10
-9 -10 -10 -16 -2 -16 10 0 15 13 12 33 -2 13 11 8 26 -10 10 -14 13 -14 11
-3 -2 8 -11 20 -21 26 -17 10 -16 12 17 28 40 19 45 24 19 22 -13 -1 -18 6
-17 22 1 12 -1 20 -4 17 -3 -3 -17 2 -31 11 -14 9 -20 11 -13 3z m30 -35 c-1
-5 -9 -9 -16 -10 -10 -2 -11 1 -1 12 12 14 24 13 17 -2z"/>
<path d="M4233 1545 c0 -8 4 -12 9 -9 5 3 6 10 3 15 -9 13 -12 11 -12 -6z"/>
<path d="M4267 1549 c7 -7 15 -10 18 -7 3 3 -2 9 -12 12 -14 6 -15 5 -6 -5z"/>
<path d="M3716 1537 c3 -10 9 -15 12 -12 3 3 0 11 -7 18 -10 9 -11 8 -5 -6z"/>
<path d="M3845 1540 c-4 -6 -11 -8 -16 -5 -5 3 -6 -1 -3 -10 4 -9 12 -14 18
-12 7 3 21 -2 31 -10 19 -13 17 -14 -15 -9 -34 4 -35 4 -7 -7 15 -6 26 -16 23
-23 -3 -7 3 -11 12 -9 9 1 20 -3 25 -9 5 -8 9 -7 15 2 7 10 11 10 22 -3 11
-13 10 -15 -3 -10 -8 4 -18 2 -21 -3 -3 -5 7 -9 22 -8 17 0 26 -4 24 -13 -1
-7 2 -9 9 -6 8 5 8 10 0 18 -16 16 -13 31 3 18 11 -9 16 -9 22 0 4 8 3 9 -4 5
-7 -4 -12 -2 -12 4 0 7 -6 10 -14 7 -7 -3 -19 0 -25 6 -14 14 -43 16 -53 3 -3
-5 -5 6 -5 25 2 28 -1 33 -17 31 -10 -2 -15 1 -12 7 4 5 2 12 -3 15 -5 4 -12
2 -16 -4z"/>
<path d="M3923 1540 c2 -8 9 -14 15 -13 6 2 9 -4 6 -12 -4 -8 -1 -15 6 -15 6
0 8 5 5 10 -3 6 -1 10 5 10 22 0 3 -25 -19 -26 -12 -1 -25 -5 -29 -9 -4 -4 0
-5 8 -3 8 3 23 -1 33 -10 16 -14 17 -13 17 9 1 22 2 23 14 7 7 -10 17 -18 21
-18 5 0 1 8 -8 18 -10 10 -14 21 -11 24 6 6 -23 18 -40 17 -5 0 -13 5 -18 13
-8 10 -9 10 -5 -2z"/>
<path d="M3575 1515 c1 -12 5 -27 10 -35 6 -10 4 -12 -9 -7 -11 4 -15 3 -11
-4 4 -6 13 -8 21 -5 7 3 16 1 19 -4 3 -5 -3 -10 -12 -12 -15 -3 -15 -5 4 -10
18 -5 21 -2 17 20 -4 21 -3 23 10 13 8 -7 13 -18 10 -26 -3 -7 -1 -16 5 -20 7
-4 8 0 4 11 -5 13 -3 15 8 9 8 -5 1 6 -14 24 -20 24 -25 37 -18 44 6 6 11 16
11 22 0 5 -5 3 -10 -5 -6 -9 -10 -10 -10 -3 0 6 -8 11 -18 10 -11 0 -17 -9
-17 -22z m32 -16 c2 -12 -2 -19 -8 -17 -6 2 -10 7 -10 11 1 4 1 15 1 24 0 22
13 8 17 -18z"/>
<path d="M4190 1530 c0 -5 7 -7 15 -4 8 4 15 8 15 10 0 2 -7 4 -15 4 -8 0 -15
-4 -15 -10z"/>
<path d="M4314 1524 c6 -14 4 -15 -9 -4 -13 11 -16 11 -13 -1 2 -8 -3 -13 -12
-11 -11 3 -11 -1 3 -16 9 -10 14 -22 10 -25 -3 -4 0 -7 7 -7 11 0 11 -3 2 -12
-7 -7 -12 -17 -12 -22 0 -6 5 -4 10 4 6 10 10 11 10 3 0 -7 3 -12 8 -12 19 3
33 -2 28 -10 -7 -11 20 -8 31 3 4 4 2 6 -6 4 -7 -1 -16 3 -19 11 -3 10 0 11 9
5 11 -6 12 -5 2 7 -10 12 -10 19 1 35 13 18 12 20 -6 21 -12 1 -29 -2 -38 -7
-12 -6 -17 -5 -17 5 0 7 6 11 13 8 8 -3 12 3 11 16 -1 12 -5 21 -10 21 -5 0
-6 -7 -3 -16z m41 -42 c-6 -4 -11 -15 -10 -24 0 -10 -3 -18 -7 -18 -31 0 -32
1 -18 10 13 8 13 10 1 10 -11 0 -9 4 5 15 10 8 24 14 29 15 6 0 6 -3 0 -8z"/>
<path d="M3636 1513 c-8 -20 9 -40 19 -22 6 8 4 10 -5 4 -9 -5 -10 -2 -5 14 8
25 0 29 -9 4z"/>
<path d="M3793 1523 c-17 -6 -17 -20 0 -20 8 0 14 6 14 14 0 7 -1 13 -1 12 -1
0 -7 -3 -13 -6z"/>
<path d="M3679 1513 c0 -5 -3 -19 -5 -32 -2 -14 -2 -22 1 -19 8 8 17 58 10 58
-3 0 -5 -3 -6 -7z"/>
<path d="M3910 1510 c0 -5 5 -10 10 -10 6 0 10 5 10 10 0 6 -4 10 -10 10 -5 0
-10 -4 -10 -10z"/>
<path d="M3710 1495 c-11 -13 -10 -14 4 -9 9 3 16 10 16 15 0 13 -6 11 -20 -6z"/>
<path d="M3732 1480 c-45 -24 -53 -34 -19 -21 38 15 42 14 27 -4 -9 -10 -9
-15 -1 -15 6 0 11 5 11 11 0 5 6 7 13 3 6 -4 9 -4 5 1 -4 4 0 14 10 22 16 12
16 13 -2 6 -13 -4 -17 -3 -12 5 8 14 10 14 -32 -8z"/>
<path d="M3497 1449 c7 -7 15 -10 18 -7 3 3 -2 9 -12 12 -14 6 -15 5 -6 -5z"/>
<path d="M3433 1430 c-2 -23 13 -35 23 -19 5 8 3 9 -6 4 -10 -6 -12 -4 -7 8 3
9 3 18 -1 21 -4 3 -8 -4 -9 -14z"/>
<path d="M3460 1435 c0 -2 6 -8 13 -14 10 -8 14 -7 14 2 0 8 -6 14 -14 14 -7
0 -13 -1 -13 -2z"/>
<path d="M3709 1427 c6 -8 7 -18 3 -22 -4 -5 -2 -5 5 -1 14 8 6 36 -9 36 -7 0
-6 -5 1 -13z"/>
<path d="M3760 1430 c-8 -5 -12 -12 -9 -15 4 -3 12 1 19 10 14 17 11 19 -10 5z"/>
<path d="M3710 1250 c0 -5 5 -10 11 -10 5 0 7 5 4 10 -3 6 -8 10 -11 10 -2 0
-4 -4 -4 -10z"/>
<path d="M3770 1251 c0 -6 5 -11 10 -11 6 0 10 -6 10 -14 0 -8 7 -17 16 -20 8
-3 12 -2 9 4 -8 13 1 13 26 -1 11 -5 17 -14 15 -18 -3 -4 1 -8 9 -8 8 0 12 4
9 9 -3 4 2 8 11 8 9 0 13 5 10 10 -4 6 -3 10 2 9 19 -3 33 2 33 12 0 8 -4 8
-14 0 -10 -8 -16 -9 -21 -1 -3 5 -1 10 5 10 6 0 8 5 4 11 -4 8 -9 7 -14 -2
-10 -16 -40 -21 -40 -7 0 6 -12 2 -27 -7 -25 -17 -26 -17 -19 1 4 10 4 15 0
11 -4 -4 -13 -2 -21 4 -9 9 -13 8 -13 0z m108 -38 c-8 -11 -14 -11 -27 -1 -9
7 -17 13 -19 14 -2 1 10 1 27 0 23 0 27 -4 19 -13z"/>
<path d="M3938 1249 c11 -11 7 -19 -20 -42 -18 -15 -26 -26 -18 -25 8 2 18 7
21 12 11 14 41 -2 33 -16 -4 -7 2 -4 14 6 23 20 30 10 10 -14 -11 -12 -10 -12
3 -2 9 6 20 8 24 4 5 -4 5 -2 1 5 -3 6 -2 14 3 18 5 3 14 -2 19 -11 8 -15 10
-15 15 0 4 9 14 16 22 16 10 0 13 -5 9 -12 -4 -7 -3 -8 4 -4 7 4 12 1 12 -6 0
-9 3 -10 8 -2 4 6 14 10 23 9 12 -2 15 4 13 23 -1 15 2 29 7 33 7 4 4 9 -5 12
-9 4 -15 1 -13 -5 1 -6 -4 -13 -11 -15 -8 -3 -10 2 -6 14 5 17 5 17 -6 0 -9
-14 -15 -16 -26 -6 -12 10 -13 9 -9 -4 4 -8 1 -18 -5 -22 -6 -3 -10 -3 -9 2 4
20 -2 24 -17 12 -15 -12 -16 -11 -9 10 5 16 4 21 -4 17 -6 -4 -11 -14 -11 -22
0 -8 -5 -14 -11 -14 -6 0 -8 9 -4 23 5 18 3 17 -10 -5 -16 -29 -28 -38 -20
-15 3 6 -5 18 -17 26 -19 11 -21 11 -10 0z m17 -28 c-3 -5 -1 -12 4 -15 5 -4
12 -2 15 2 3 5 15 8 28 7 13 -1 28 2 35 7 10 8 11 0 4 -30 -1 -2 -7 0 -13 4
-18 11 -48 12 -54 2 -3 -5 -12 -4 -20 3 -12 10 -11 29 2 29 3 0 3 -4 -1 -9z
m138 -8 c-6 -16 -5 -16 10 -4 10 8 20 11 24 7 3 -3 1 -6 -6 -6 -7 0 -10 -4 -7
-9 7 -11 -13 -9 -33 3 -11 7 -11 10 0 17 19 12 19 11 12 -8z"/>
<path d="M4202 1236 c-1 -17 1 -18 8 -6 7 11 9 8 7 -12 -1 -15 2 -26 8 -25 12
3 15 36 3 43 -4 3 -6 9 -4 13 3 4 -1 8 -7 8 -7 0 -14 -10 -15 -21z"/>
<path d="M4249 1253 c-4 -28 -3 -39 4 -50 10 -14 30 -7 22 8 -4 5 -2 9 4 9 5
0 12 -6 14 -12 4 -8 8 -4 12 9 4 13 11 20 16 17 5 -3 7 -9 4 -14 -10 -16 14
-21 37 -8 13 7 30 11 38 9 17 -3 15 -1 -24 23 -16 10 -25 13 -22 7 4 -6 2 -11
-3 -11 -18 0 -26 5 -23 13 1 4 -2 7 -7 7 -5 0 -12 -9 -16 -20 -5 -16 -10 -17
-30 -8 -14 6 -22 15 -19 19 3 5 3 9 0 9 -3 0 -7 -3 -7 -7z m111 -33 c-24 -15
-37 -11 -16 5 11 8 22 12 25 9 3 -3 -1 -9 -9 -14z m-93 -5 c0 -8 -4 -12 -9 -9
-5 3 -6 10 -3 15 9 13 12 11 12 -6z"/>
<path d="M4275 1250 c-3 -5 -1 -10 4 -10 6 0 11 5 11 10 0 6 -2 10 -4 10 -3 0
-8 -4 -11 -10z"/>
<path d="M3640 1241 c0 -6 4 -13 10 -16 6 -3 7 1 4 9 -7 18 -14 21 -14 7z"/>
<path d="M4160 1237 c-22 -18 -25 -41 -4 -33 14 5 15 4 4 -9 -11 -13 -10 -14
4 -9 9 3 16 10 16 15 0 4 7 6 16 2 15 -5 15 -3 -1 20 -9 15 -18 27 -19 27 0 0
-8 -6 -16 -13z m20 -7 c0 -5 -5 -10 -11 -10 -5 0 -7 5 -4 10 3 6 8 10 11 10 2
0 4 -4 4 -10z"/>
<path d="M4426 1234 c-5 -14 -4 -15 9 -4 17 14 19 20 6 20 -5 0 -12 -7 -15
-16z"/>
<path d="M3675 1230 c-4 -6 1 -7 11 -3 13 5 15 3 9 -7 -5 -9 -4 -11 4 -6 6 4
9 12 6 17 -8 12 -22 12 -30 -1z"/>
<path d="M3743 1221 c1 -14 5 -17 13 -11 6 6 15 6 20 2 4 -4 2 1 -5 11 -18 23
-30 22 -28 -2z"/>
<path d="M3716 1213 c-6 -14 -5 -15 5 -6 7 7 10 15 7 18 -3 3 -9 -2 -12 -12z"/>
</g>
</svg>
