<svg width="50px" height="50px" viewBox="0 0 100 100" fill="none" xmlns="http://www.w3.org/2000/svg"><path d="M43.3077 14.1204C46.4333 11.1506 50.8581 10.1412 55.0516 10.0244C59.4777 9.98539 63.9037 10.0049 68.3285 10.0049C68.348 14.683 68.348 19.3416 68.3285 24.0197C65.4757 24.0197 62.6021 24.0197 59.7492 24.0197C57.9435 23.9028 56.0805 25.2811 55.7505 27.0868C55.7116 30.2125 55.7311 33.3369 55.7311 36.4625C59.9233 36.482 64.1168 36.4625 68.3091 36.482C67.9986 41.0042 67.436 45.5082 66.7761 49.9732C63.0684 50.0122 59.3608 49.9732 55.6531 49.9927C55.6142 63.3281 55.6726 76.6439 55.6336 89.9805C50.1203 90 44.6276 89.961 39.1142 90C39.0168 76.6646 39.1142 63.3293 39.0558 49.9927C36.377 49.9732 33.6788 50.0122 31 49.9732C31.0195 45.4887 31 41.0054 31 36.5404C33.6788 36.5015 36.377 36.5404 39.0558 36.521C39.1337 32.1728 38.9778 27.8052 39.1337 23.4571C39.4259 19.9833 40.7263 16.5082 43.3077 14.1204Z" fill="#ffffff"></path></svg>